<svg width="35" height="35" viewBox="0 0 35 35" fill="none" xmlns="http://www.w3.org/2000/svg">
<path d="M9.1 0.109921C3.33 0.599918 1.05 2.46992 0.31 7.34992C0.06 8.98992 0 10.8399 0 17.4699C0 24.4599 0.06 26.1299 0.37 27.9999C1.01 31.8999 2.79 33.8099 6.49 34.5599C8.51 34.9699 9.89 35.0199 18.45 34.9699C25.37 34.9399 26.6 34.9099 27.53 34.7599C32.14 34.0299 34.03 32.1399 34.76 27.5299C34.91 26.5999 34.94 25.3699 34.97 18.3999C35 13.0199 34.98 9.89992 34.9 9.00992C34.38 2.67992 32.28 0.639919 25.77 0.0999184C24.28 -0.0200806 10.54 -0.0100784 9.1 0.109921ZM10.04 11.3999C10.17 11.5399 10.45 12.0999 10.65 12.6499C11.47 14.8999 13.01 17.6199 13.94 18.4799C14.51 18.9999 14.95 19.0599 15.07 18.6199C15.12 18.4699 15.15 17.3099 15.15 16.0499C15.15 13.4699 15.12 13.2999 14.47 12.3699C14.11 11.8599 14.08 11.7699 14.18 11.5499C14.25 11.4099 14.41 11.2499 14.56 11.1999C14.7 11.1399 15.75 11.0999 16.89 11.0999C18.84 11.0999 18.99 11.1099 19.23 11.2999L19.49 11.5099L19.52 14.5599C19.55 17.3899 19.56 17.6299 19.73 17.7499C20.02 17.9599 20.41 17.7599 21.07 17.0699C21.91 16.1899 22.61 15.1099 23.65 13.0999C24.52 11.4099 24.56 11.3499 24.95 11.2199C25.5 11.0399 28.3 11.0899 28.53 11.2899C29.07 11.7299 28.41 13.2099 26.13 16.6499C25.51 17.5799 25 18.4499 25 18.5699C25 18.7199 25.4 19.2099 26.16 20.0199C28.8 22.7999 29.62 24.1899 28.99 24.7599C28.81 24.9299 28.59 24.9499 27.21 24.9799C26.28 24.9999 25.5 24.9699 25.29 24.9099C25.01 24.8299 24.61 24.4699 23.7 23.4999C21.84 21.5199 20.69 20.6999 20 20.8499C19.83 20.8899 19.67 20.9699 19.63 21.0299C19.58 21.0999 19.53 21.9099 19.5 22.8399L19.45 24.5299L19.17 24.7399C18.75 25.0499 16.89 25.0399 15.76 24.7199C14.79 24.4399 13.43 23.7499 12.58 23.1099C10.2 21.2999 7.16 16.5399 6.15 13.0599C5.78 11.7699 5.83 11.3899 6.4 11.1699C6.48 11.1299 7.28 11.1199 8.17 11.1299C9.76 11.1499 9.8 11.1599 10.04 11.3999Z" fill="white"/>
</svg>
