<svg width="512" height="512" viewBox="0 0 512 512" fill="none" xmlns="http://www.w3.org/2000/svg">
<path fill-rule="evenodd" clip-rule="evenodd" d="M274.193 0.576794C273.494 0.858794 272.256 2.37579 271.443 3.94879C270.217 6.31979 269.964 13.0568 269.964 43.3578V79.9078H267.113C260.019 79.9078 252.135 84.6918 248.955 90.9258C247.269 94.2308 246.964 96.8218 246.964 107.849C246.964 120.541 246.907 120.882 244.714 121.357C233.002 123.89 220.383 127.124 217.491 128.332C211.473 130.847 210.493 138.243 215.724 141.67C218.085 143.217 218.752 143.181 226.724 141.069C231.391 139.833 235.403 139.013 235.638 139.249C235.873 139.484 235.133 144.791 233.994 151.042C232.854 157.293 231.351 166.221 230.653 170.882L229.384 179.356L216.924 181.091C206.758 182.506 189.279 185.749 176.192 188.646L173.92 189.15L176.518 181.948C182.407 165.621 185.516 159.487 189.052 157.22C194.932 153.45 196.874 151.496 197.531 148.683C198.044 146.491 197.556 145.346 195.041 142.831C191.095 138.885 189.526 139.201 177.464 146.376C158.861 157.441 138.668 174.798 125.718 190.854C101.86 220.436 85.6344 259.328 82.3334 294.846C81.7304 301.332 81.8433 301.878 84.2833 304.318C90.0113 310.046 96.2244 306.167 97.3564 296.158C97.8684 291.636 98.5013 289.878 99.7583 289.494C103.011 288.501 129.493 283.83 135.382 283.21C140.824 282.638 141.245 282.735 140.602 284.408C139.723 286.699 139.663 341.86 140.536 345.338C141.07 347.466 140.832 347.908 139.152 347.908C136.839 347.908 111.083 343.593 103.305 341.903L98.1463 340.781L97.4383 334.682C96.2913 324.802 89.9994 320.782 84.4194 326.363C81.5464 329.235 81.4523 330.933 83.4353 344.09C91.6964 398.891 122.708 447.89 168.464 478.436C246.758 530.703 350.06 520.649 416.403 454.306C448.218 422.491 467.07 383.922 473.033 338.45C474.817 324.843 473.744 292.091 471.079 278.815C467.167 259.329 460.624 240.656 451.785 223.754C445.082 210.937 442.25 207.575 438.156 207.575C430.765 207.575 428.852 214.446 433.941 222.716C441.434 234.894 453.964 265.646 453.964 271.859C453.964 273.503 453.519 273.595 449.714 272.737C447.376 272.21 438.536 270.693 430.069 269.365C421.602 268.038 414.444 266.722 414.163 266.441C413.883 266.16 413.081 261.771 412.382 256.688C411.371 249.333 410.665 247.084 408.927 245.677C405.963 243.277 401.43 243.442 398.827 246.045C396.862 248.01 396.742 248.863 397.34 256.635L397.99 265.088L394.227 264.498C389.634 263.778 359.554 261.293 344.361 260.377L333.258 259.709L332.591 247.058C331.871 233.419 329.277 202.144 328.494 197.658C328.112 195.47 328.395 194.908 329.878 194.908C333.343 194.908 336.364 191.468 336.364 187.523C336.364 183.199 334.408 180.951 329.834 180.015L326.482 179.33L323.17 159.506C321.348 148.602 320.103 139.436 320.403 139.136C320.703 138.835 326.742 140.461 333.822 142.749C340.903 145.036 347.656 146.908 348.83 146.908C354.764 146.908 357.202 137.813 352.301 133.958C349.112 131.45 330.563 125.466 318.284 122.984L309.464 121.201L308.964 107.227C308.49 93.9868 308.316 93.0288 305.65 89.0038C302.388 84.0808 294.657 79.9328 288.714 79.9178L284.964 79.9078V42.0818V4.25679L282.65 2.08179C280.468 0.0327942 277.055 -0.574206 274.193 0.576794ZM292.135 96.5628C293.682 97.9628 293.964 99.8108 293.964 108.563V118.908H277.964H261.964V107.958C261.964 98.5838 262.216 96.8608 263.714 95.9878C264.676 95.4268 271.054 94.9548 277.885 94.9378C288.07 94.9128 290.636 95.2058 292.135 96.5628ZM394.193 115.46C392.973 116.314 390.454 120.307 388.594 124.332C381.905 138.809 371.305 151.162 358.464 159.441C348.949 165.575 347.964 166.698 347.964 171.408C347.964 176.169 349.188 177.573 358.4 183.38C370.846 191.225 382.012 204.18 388.391 218.179C393.024 228.346 396.833 230.747 403.503 227.708C405.405 226.842 407.317 223.999 410.396 217.458C417.67 202.006 426.227 192.285 440.91 182.792C454.328 174.117 454.429 168.521 441.315 160.347C427.188 151.543 417.588 140.746 410.369 125.546C405.179 114.618 400.003 111.391 394.193 115.46ZM302.475 136.018C303.625 137.191 307.16 153.679 309.419 168.408C309.756 170.608 310.253 173.533 310.523 174.908L311.013 177.408H277.943H244.873L245.474 173.408C246.609 165.847 251.114 140.992 251.855 138.201C252.52 135.696 253.158 135.34 258.031 134.754C261.019 134.394 271.935 134.219 282.288 134.364C296.767 134.567 301.427 134.949 302.475 136.018ZM416.698 159.986C420.419 163.526 424.995 167.568 426.866 168.968L430.269 171.514L425.249 175.199C418.277 180.316 407.979 191.462 403.466 198.774C401.383 202.148 399.406 204.899 399.072 204.888C398.738 204.877 397.114 202.584 395.464 199.792C391.297 192.741 382.592 182.914 375.459 177.21C372.157 174.569 369.432 171.958 369.404 171.408C369.377 170.858 371.179 169.098 373.409 167.497C379.635 163.026 389.37 152.57 394.525 144.816L399.174 137.824L404.553 145.687C407.512 150.011 412.977 156.446 416.698 159.986ZM159.626 184.652L156.464 193.896L147.536 196.891C142.626 198.538 138.404 199.681 138.153 199.431C137.903 199.181 143.191 193.518 149.903 186.847C156.615 180.176 162.26 174.873 162.448 175.063C162.635 175.253 161.366 179.568 159.626 184.652ZM301.605 192.559L312.745 193.201L313.344 197.805C314.359 205.6 316.862 234.773 317.578 247.158L318.258 258.908H277.956H237.654L238.295 245.658C238.937 232.384 241.424 203.664 242.535 196.699L243.126 192.989L250.795 192.65C266.051 191.975 290.701 191.931 301.605 192.559ZM226.962 197.658C226.961 199.17 226.308 206.933 225.512 214.908C224.716 222.883 223.79 235.258 223.454 242.408C222.561 261.419 223.835 259.55 211.225 260.35C196.407 261.29 167.369 263.756 162.214 264.512C158.011 265.128 157.964 265.102 157.964 262.101C157.964 257.556 162.526 231.515 165.635 218.314C168.031 208.143 168.672 206.589 170.813 205.775C174.717 204.291 198.509 199.215 209.964 197.423C215.739 196.52 221.139 195.636 221.964 195.46C226.154 194.566 226.964 194.922 226.962 197.658ZM149.349 222.158C148.072 227.795 146.089 238.708 144.943 246.408C143.796 254.108 142.637 261.87 142.366 263.658C142.095 265.446 141.456 266.908 140.946 266.908C139.456 266.908 104.634 272.906 102.763 273.485C101.191 273.972 101.206 273.494 102.966 267.142C106.048 256.023 110.785 243.672 115.788 233.714C120.237 224.86 120.737 224.271 126.076 221.6C132.099 218.587 148.748 212.029 150.567 211.954C151.288 211.924 150.866 215.459 149.349 222.158ZM319.32 294.805C319.689 306.299 319.69 324.715 319.322 335.729C318.681 354.932 318.567 355.779 316.559 356.318C313.732 357.077 242.057 357.04 239.214 356.278C237.227 355.745 236.964 355.033 236.964 350.181C236.964 340.51 242.938 331.663 255.134 323.276C263.111 317.79 262.424 312.245 252.964 305.751C242.413 298.507 236.964 289.718 236.964 279.941V273.908H277.806H318.648L319.32 294.805ZM221.719 281.368C221.067 289.491 217.995 294.963 210.391 301.541C194.027 315.698 194.002 316.175 209.033 327.5C216.576 333.183 221.031 340.874 221.715 349.394L222.238 355.906L214.351 355.352C199.3 354.296 169.43 351.838 162.98 351.125L156.496 350.408L155.788 346.408C154.91 341.452 154.756 292.288 155.596 285.293L156.211 280.178L168.337 278.909C181.414 277.54 210.715 275.249 217.851 275.038L222.238 274.908L221.719 281.368ZM370.464 277.451C379.814 278.232 390.215 279.162 393.578 279.518L399.692 280.165L400.328 287.687C401.131 297.187 400.981 337.596 400.115 344.908L399.464 350.408L388.964 351.564C383.189 352.2 378.127 352.762 377.714 352.814C377.301 352.866 376.064 353.808 374.964 354.908C370.783 359.089 373.747 367.101 379.532 367.254C381.145 367.297 386.009 366.968 390.341 366.523L398.219 365.713L397.507 371.561C395.867 385.027 391.486 407.648 387.938 420.968L386.989 424.528L373.727 427.675C362.181 430.415 346.894 433.232 332.129 435.34C327.815 435.956 327.797 435.945 328.359 433.183C329.189 429.108 331.819 398.38 332.593 383.721L333.262 371.035L342.167 370.338C352.882 369.5 355.364 368.008 355.364 362.408C355.364 359.63 354.725 358.13 352.914 356.655C350.768 354.907 349.472 354.729 342.464 355.218L334.464 355.775V315.267V274.759L343.964 275.395C349.189 275.744 361.114 276.669 370.464 277.451ZM445.304 287.397C451.816 288.694 457.416 290.027 457.747 290.358C458.69 291.301 459.292 324.912 458.515 333.208L457.818 340.65L450.141 342.265C438.962 344.617 419.945 347.908 417.539 347.908C415.481 347.908 415.464 347.637 415.464 315.092V282.276L424.464 283.658C429.414 284.417 438.792 286.1 445.304 287.397ZM234.586 320.999L229.464 326.591L224.359 321.018L219.253 315.446L224.294 309.719L229.335 303.992L234.522 309.7L239.709 315.407L234.586 320.999ZM121.451 360.427C143.519 363.986 141.802 363.432 142.366 367.166C145.198 385.914 148.445 404.843 149.917 411.187L151.723 418.966L149.593 418.342C148.422 417.998 141.683 415.432 134.618 412.64C122.855 407.992 121.556 407.221 119.205 403.498C114.031 395.302 105.699 374.413 102.076 360.555C101.114 356.878 101.168 356.728 103.253 357.273C104.455 357.588 112.644 359.007 121.451 360.427ZM453.497 360.586C452.115 367.95 446.664 382.686 440.928 394.563L435.057 406.719L429.348 409.332C422.206 412.602 404.853 419.131 404.43 418.707C404.256 418.534 404.759 415.695 405.547 412.4C407.769 403.11 412.964 372.263 412.964 368.36C412.964 364.015 413.837 363.624 428.464 361.412C434.514 360.498 442.164 359.156 445.464 358.431C454.5 356.446 454.284 356.388 453.497 360.586ZM187.964 368.417C198.689 369.252 210.728 370.192 214.716 370.507C223.234 371.179 222.578 369.905 223.418 387.408C223.735 394.008 224.734 407.399 225.639 417.165C226.543 426.931 227.099 435.104 226.874 435.327C226.082 436.109 195.313 430.824 181.982 427.616L168.5 424.372L165.764 412.89C162.659 399.863 157.964 373.247 157.964 368.672V365.629L163.214 366.264C166.102 366.613 177.239 367.582 187.964 368.417ZM317.578 383.658C316.814 396.867 314.285 426.2 313.356 432.625C312.907 435.732 312.183 437.032 310.605 437.562C307.77 438.515 248.096 438.493 245.249 437.538C243.782 437.046 242.846 435.717 242.479 433.602C241.481 427.847 239.051 399.635 238.348 385.627L237.66 371.908H277.959H318.258L317.578 383.658ZM69.3074 411.158C68.2044 412.396 66.0143 416.108 64.4413 419.408C61.3443 425.906 52.0213 435.911 43.4643 441.918C39.7623 444.517 38.3793 446.171 38.1363 448.289C37.5293 453.58 38.7723 455.548 45.4833 459.92C54.0083 465.475 60.2463 472.525 64.9993 481.978C69.6293 491.187 72.8743 493.275 78.4353 490.623C80.9983 489.401 82.5813 487.355 85.3223 481.722C89.8733 472.373 95.2714 466.187 103.869 460.471C115.533 452.717 115.691 447.243 104.46 439.98C96.1493 434.605 89.6584 427.244 84.9194 417.818C82.8024 413.608 80.3343 409.88 79.4353 409.535C75.8983 408.178 71.3084 408.914 69.3074 411.158ZM147.97 433.736L156.385 436.563L159.56 445.736C161.306 450.78 162.518 454.908 162.253 454.908C161.988 454.908 158.919 452.404 155.433 449.343C148.489 443.247 137.273 430.908 138.675 430.908C139.159 430.908 143.341 432.18 147.97 433.736ZM416.964 431.553C416.964 432.495 396.77 452.91 394.754 454.006C393.347 454.771 393.613 453.303 396.254 445.742L399.464 436.548L407.464 433.806C416.308 430.775 416.964 430.62 416.964 431.553ZM86.2093 444.735L91.6824 450.062L85.0083 456.735C81.3373 460.405 77.5873 464.533 76.6733 465.908C75.0483 468.355 74.9873 468.365 73.8193 466.408C73.1633 465.308 69.4463 461.114 65.5593 457.089L58.4924 449.77L63.1053 445.589C65.6423 443.289 69.3994 439.274 71.4554 436.666L75.1924 431.923L77.9643 435.666C79.4883 437.724 83.1983 441.805 86.2093 444.735ZM191.964 445.208C198.839 446.619 209.864 448.518 216.464 449.428C223.064 450.339 228.662 451.28 228.904 451.519C229.487 452.096 236.02 491.185 235.604 491.602C235.426 491.779 230.633 490.544 224.953 488.857C213.175 485.358 191.738 475.992 187.86 472.651C185.245 470.399 182.268 464.151 176.847 449.542L173.929 441.676L176.696 442.16C178.219 442.426 185.089 443.798 191.964 445.208ZM380.964 442.84C380.964 444.119 375.757 458.046 372.435 465.652C370.001 471.224 369.102 472.228 364.086 474.975C355.23 479.824 338.847 486.604 329.294 489.373C324.485 490.767 320.266 491.908 319.919 491.908C319.572 491.908 320.314 486.636 321.568 480.193C322.821 473.749 324.381 464.569 325.034 459.792L326.221 451.106L331.842 450.449C341.557 449.313 367.245 444.894 372.464 443.46C378.557 441.787 380.964 441.611 380.964 442.84ZM310.524 455.897C310.252 457.278 309.549 461.333 308.961 464.908C305.117 488.299 303.739 493.958 301.601 495.13C299.137 496.481 261.737 496.892 255.822 495.633L252.18 494.858L249.588 481.133C247.313 469.084 244.994 455.401 244.972 453.897C244.967 453.616 259.826 453.386 277.991 453.386H311.018L310.524 455.897Z" fill="white"/>
</svg>
