<svg width="43" height="41" viewBox="0 0 43 41" fill="none" xmlns="http://www.w3.org/2000/svg">
<path d="M20.9372 0.847462C20.2737 0.948242 19.4927 1.35137 18.9804 1.85527C18.3757 2.45996 18.0566 3.17383 17.9474 4.13125L17.8634 4.87032L17.2671 5.04668C13.5214 6.18887 10.5819 9.18711 9.61612 12.8572L9.38097 13.7391L9.31378 18.5682C9.27179 22.4062 9.22979 23.5652 9.12061 24.2371C8.57472 27.5461 7.30655 30.1664 5.03058 32.6859C4.66944 33.0807 4.3503 33.5006 4.32511 33.6182C4.24112 33.9625 4.47628 34.332 4.85421 34.4328C5.28253 34.5504 10.6743 35.4742 13.1855 35.8689C14.7812 36.1125 15.2599 36.2217 15.3271 36.3309C16.0745 37.5654 16.7548 38.3213 17.6702 38.9344C19.0056 39.8162 20.1226 40.1689 21.6259 40.1689C24.0698 40.1689 26.2534 38.9512 27.614 36.8348C27.8239 36.5072 28.0087 36.2301 28.0171 36.2133C28.0339 36.1965 28.9661 36.0369 30.0831 35.8605C31.2085 35.6926 33.5601 35.2979 35.3153 34.9871C38.7083 34.3992 38.8007 34.374 38.9183 33.8869C38.9939 33.6098 38.8763 33.425 38.0952 32.5516C35.6849 29.8809 34.4083 27.2689 33.8792 23.9348C33.77 23.2377 33.728 22.0871 33.6776 18.2322L33.6189 13.4031L33.4005 12.6053C32.9722 11.018 32.3423 9.7918 31.3261 8.57403C29.9739 6.94473 28.2187 5.77735 26.0939 5.09707L25.1364 4.78633L25.0525 4.08926C24.7921 1.94766 23.0116 0.545116 20.9372 0.847462ZM22.3817 2.44316C23.02 2.71191 23.5155 3.38379 23.6247 4.13125L23.6667 4.4336L21.9786 4.4252C21.0464 4.4168 20.0638 4.44199 19.795 4.48399L19.3163 4.54277L19.3667 4.19004C19.5935 2.66153 21.0044 1.84687 22.3817 2.44316ZM22.9108 5.89492C27.698 6.41563 30.9817 9.01914 32.0567 13.1428C32.1659 13.5627 32.1995 14.4781 32.2499 18.4002C32.3171 23.4561 32.3591 23.9852 32.7874 25.7488C33.3921 28.2012 34.6099 30.6115 36.256 32.6104C36.7515 33.2234 36.7767 33.2654 36.6003 33.3074C36.3651 33.3578 33.1066 33.9205 31.0321 34.2648C24.3218 35.3902 20.6097 35.4742 14.6972 34.6512C13.387 34.4664 7.13858 33.425 6.65147 33.3074C6.46671 33.2654 6.48351 33.2318 6.95382 32.6523C8.54112 30.6955 9.70011 28.2936 10.288 25.7488C10.6491 24.1867 10.6827 23.6072 10.7415 18.6941C10.7424 18.6337 10.7432 18.5739 10.744 18.5147C10.817 13.2605 10.817 13.2596 11.5562 11.6982C12.2616 10.1781 13.2694 8.96875 14.63 7.96094C16.8136 6.35684 19.963 5.56739 22.9108 5.89492ZM18.7032 36.5408C20.0974 36.6584 23.3728 36.6416 24.9013 36.5072C25.5983 36.4484 26.1778 36.4148 26.1946 36.4316C26.2198 36.4484 25.9511 36.734 25.6067 37.0699C23.398 39.2451 20.1478 39.3207 17.8466 37.2715C17.5946 37.0531 17.3091 36.7592 17.2167 36.6248L17.0487 36.3896L17.3595 36.4232C17.5358 36.44 18.1405 36.4904 18.7032 36.5408Z" fill="white"/>
<path d="M22.9108 5.89492C27.698 6.41563 30.9817 9.01914 32.0567 13.1428C32.1659 13.5627 32.1995 14.4781 32.2499 18.4002C32.3171 23.4561 32.3591 23.9852 32.7874 25.7488C33.3921 28.2012 34.6099 30.6115 36.256 32.6104C36.7515 33.2234 36.7767 33.2654 36.6003 33.3074C36.3651 33.3578 33.1066 33.9205 31.0321 34.2648C24.3218 35.3902 20.6097 35.4742 14.6972 34.6512C13.387 34.4664 7.13858 33.425 6.65147 33.3074C6.46671 33.2654 6.48351 33.2318 6.95382 32.6523C8.54112 30.6955 9.70011 28.2936 10.288 25.7488C10.6491 24.1867 10.6827 23.6072 10.7415 18.6941L10.744 18.5147C10.817 13.2605 10.817 13.2596 11.5562 11.6982C12.2616 10.1781 13.2694 8.96875 14.63 7.96094C16.8136 6.35684 19.963 5.56739 22.9108 5.89492Z" fill="white"/>
<path d="M18.7032 36.5408C20.0974 36.6584 23.3728 36.6416 24.9013 36.5072C25.5983 36.4484 26.1778 36.4148 26.1946 36.4316C26.2198 36.4484 25.9511 36.734 25.6067 37.0699C23.398 39.2451 20.1478 39.3207 17.8466 37.2715C17.5946 37.0531 17.3091 36.7592 17.2167 36.6248L17.0487 36.3896L17.3595 36.4232C17.5358 36.44 18.1405 36.4904 18.7032 36.5408Z" fill="white"/>
<path d="M19.9043 8.1123C17.2672 8.55742 15.2936 9.74999 13.9666 11.7236C13.3283 12.6643 12.9336 13.8652 12.9336 14.8814C12.9336 15.3517 12.9588 15.4609 13.1268 15.6121C13.5467 16.0068 14.227 15.7549 14.3109 15.1922C14.4789 13.9576 14.5461 13.7057 14.8484 13.0758C15.4447 11.858 16.3937 10.9174 17.6871 10.2875C19.7531 9.27128 22.4826 9.13691 24.6914 9.93476C25.6404 10.2707 25.9932 10.3127 26.2199 10.1195C26.4887 9.86757 26.5559 9.61562 26.4215 9.29648C26.3207 9.06132 26.2031 8.97734 25.6908 8.75898C24.9937 8.47343 24.0195 8.21308 23.1209 8.0787C22.3314 7.96113 20.7021 7.97792 19.9043 8.1123Z" fill="white"/>
<path d="M2.40208 15.3852C2.02415 15.7127 1.36067 16.6113 0.974345 17.3168C-0.56257 20.1135 -0.218234 23.8256 1.81419 26.3619C2.46087 27.1682 2.74642 27.3613 3.12435 27.227C3.45188 27.1094 3.60306 26.9078 3.61146 26.5803C3.61146 26.3703 3.47708 26.1352 3.02356 25.5725C2.36009 24.7242 1.94017 23.9264 1.66302 22.9689C1.39427 22.0199 1.39427 20.4074 1.66302 19.45C1.94856 18.459 2.36849 17.6527 3.02356 16.8297C3.70384 15.9898 3.77103 15.6875 3.3931 15.3348C3.08235 15.0492 2.76321 15.066 2.40208 15.3852Z" fill="white"/>
<path d="M39.6071 15.3349C39.2291 15.6876 39.2963 15.99 39.9766 16.8298C40.6317 17.6529 41.0516 18.4591 41.3372 19.4501C41.6059 20.4075 41.6059 22.02 41.3372 22.9691C41.06 23.9265 40.6401 24.7243 39.9766 25.5726C39.5231 26.1353 39.3887 26.3704 39.3887 26.5804C39.3971 27.1011 39.9178 27.4202 40.3797 27.1851C40.7661 26.9835 41.6983 25.7574 42.1266 24.8923C43.5208 22.0452 43.21 18.7782 41.3036 16.1999C40.5225 15.1333 40.069 14.9066 39.6071 15.3349Z" fill="white"/>
<path d="M5.62705 16.6614C5.30791 16.8209 4.63603 17.7028 4.2833 18.4418C3.85498 19.3153 3.68701 20.0627 3.68701 21.0789C3.68701 22.7082 4.21611 24.0856 5.26592 25.211C5.72783 25.6981 6.08056 25.7653 6.4249 25.4125C6.76084 25.085 6.71045 24.7407 6.24853 24.1948C5.48428 23.2709 5.12314 22.2883 5.12314 21.1041C5.12314 19.9032 5.49267 18.9121 6.29052 17.9463C6.76084 17.392 6.76084 16.9133 6.29052 16.6782C6.00498 16.527 5.8958 16.527 5.62705 16.6614Z" fill="white"/>
<path d="M36.7434 16.6446C36.2227 16.9385 36.2311 17.3668 36.777 18.0471C37.5497 19.0045 37.8772 19.9116 37.8772 21.0873C37.8772 22.2883 37.5245 23.2625 36.7518 24.1948C36.2899 24.7407 36.2395 25.085 36.5755 25.4125C36.9198 25.7653 37.2725 25.6981 37.7344 25.211C38.7842 24.0856 39.3134 22.7082 39.3134 21.0789C39.3134 20.1299 39.1622 19.3825 38.801 18.6014C38.5407 18.0219 37.9528 17.1401 37.6085 16.8293C37.3649 16.6026 36.9702 16.5186 36.7434 16.6446Z" fill="white"/>
</svg>
