<svg width="512" height="512" viewBox="0 0 512 512" fill="none" xmlns="http://www.w3.org/2000/svg">
<path fill-rule="evenodd" clip-rule="evenodd" d="M337.143 1.39224C330.09 3.62924 325.211 6.67524 320.337 11.8862C313.896 18.7722 311.481 24.5982 310.883 34.6952L310.397 42.8992L305.27 40.1952C300.64 37.7522 299.124 37.4902 289.643 37.4902C279.584 37.4902 278.878 37.6342 272.83 40.9132C265.001 45.1582 258.442 52.3132 255.528 59.7882C253.494 65.0062 253.268 67.6302 252.864 90.7012L252.423 115.912L247.283 113.202C242.686 110.778 241.087 110.492 232.143 110.493C222.85 110.494 221.713 110.719 216.055 113.675C207.331 118.232 200.238 126.323 197.666 134.651C195.732 140.911 195.643 143.802 195.643 200.095C195.643 232.487 195.515 258.99 195.358 258.99C195.202 258.99 192.476 258.077 189.302 256.961C176.375 252.418 167.437 250.863 151.143 250.321C132.6 249.705 121.495 251.126 105.906 256.111C95.2069 259.533 81.533 266.053 74.893 270.9C69.972 274.492 69.303 278.016 72.716 282.355C75.47 285.857 79.0539 285.749 84.9879 281.986C103.094 270.504 122.609 264.99 145.143 264.99C213.624 264.99 268.041 323.201 261.531 389.49C258.109 424.326 242.581 453.877 217.979 472.369C196.665 488.39 173.552 495.99 146.143 495.99C91.024 495.99 47.259 462.347 34.268 409.99C25.434 374.385 30.6309 344.681 51.0459 314.108C54.1239 309.497 56.643 304.865 56.643 303.812C56.643 300.866 52.171 296.99 48.773 296.99C45.099 296.99 40.249 302.248 33.351 313.712C3.24898 363.735 10.7149 427.502 51.8169 471.433C70.2999 491.187 93.077 503.835 120.643 509.652C132.473 512.148 158.813 512.148 170.643 509.652C195.398 504.429 217.617 493.164 234.781 477.135L242.151 470.252L247.999 475.567C264.85 490.88 290.222 503.456 314.344 508.451C360.758 518.061 411.977 505.008 444.56 475.264C449.942 470.352 450.976 468.881 450.976 466.143C450.976 462.006 447.762 458.657 443.792 458.657C441.629 458.657 439.118 460.151 434.487 464.196C416.765 479.671 395.311 489.862 370.643 494.522C357.919 496.926 334.578 496.971 321.791 494.616C297.278 490.101 274.355 479.2 257.404 463.997L251.664 458.849L255.519 453.169C264.936 439.294 272.294 420.766 275.21 403.587C277.857 387.993 276.827 364.157 272.843 348.8C265.599 320.874 249.8 295.737 228.953 278.966C224.753 275.587 218.915 271.468 215.98 269.811L210.643 266.799L210.649 205.145C210.652 164.764 211.02 142.172 211.715 139.669C213.152 134.494 218.822 128.469 224.181 126.422C233.686 122.792 245.152 126.589 250.095 135.004C252.08 138.382 252.158 140.305 252.643 197.327L253.143 256.165L255.949 258.577C259.379 261.527 261.578 261.616 264.979 258.94L267.585 256.891L267.864 162.19L268.143 67.4902L270.296 63.4902C274.45 55.7712 280.644 51.9902 289.133 51.9902C298.526 51.9902 307.236 58.2602 309.583 66.7132C310.273 69.1962 310.634 96.7162 310.637 147.066L310.643 223.641L312.957 225.816C316.028 228.7 320.136 228.587 323.188 225.535L325.643 223.081L325.665 127.285C325.69 19.9222 325.2 27.0982 332.959 20.2862C343.434 11.0892 359.979 14.7162 365.778 27.4812C367.498 31.2682 367.6 36.7892 367.621 127.285L367.643 223.081L370.098 225.535C373.116 228.554 377.473 228.729 380.454 225.951L382.643 223.912V147.077C382.643 80.4732 382.848 69.6612 384.182 65.8802C387.21 57.2972 394.837 51.9902 404.143 51.9902C412.794 51.9902 418.927 55.8372 423.276 63.9902C425.064 67.3422 425.154 72.5102 425.413 186.123L425.683 304.757L421.154 305.436C399.255 308.72 377.366 325.117 367.62 345.539C361.052 359.3 358.517 377.864 362.643 381.99C365.258 384.605 370.75 384.634 373.093 382.045C374.242 380.775 375.164 377.317 375.751 372.071C377.574 355.775 384.258 342.98 396.143 333.033C405.479 325.22 414.622 321.497 428 320.063C441.292 318.637 440.058 324.775 440.643 257.213L441.143 199.49L443.463 196.238C447.899 190.018 452.235 187.576 459.533 187.188C468.224 186.726 473.832 189.529 478.143 196.49L481.143 201.334V288.412C481.143 367.935 480.987 376.314 479.35 384.99C476.892 398.018 471.496 413.66 465.588 424.884C459.909 435.672 459.468 438.921 463.278 441.917C466.558 444.498 470.066 444.567 472.532 442.101C478.156 436.477 488.18 413.307 492.062 396.959C496.329 378.99 496.643 371.365 496.643 285.74C496.643 195.423 496.772 197.346 490.058 187.188C481.09 173.62 462.578 168.151 447.143 174.509C443.843 175.869 441.031 176.983 440.893 176.985C440.755 176.988 440.643 153.448 440.643 124.674C440.643 70.4832 440.248 64.0562 436.459 56.6302C433.371 50.5772 426.296 43.6442 419.921 40.4232C414.689 37.7802 413.198 37.5032 404.143 37.4972C394.335 37.4902 391.967 38.0912 383.521 42.7302C383.178 42.9182 382.7 39.2922 382.457 34.6732C381.943 24.8842 379.054 17.8822 372.934 11.5972C363.275 1.67724 349.042 -2.38076 337.143 1.39224ZM126.756 280.477C117.085 282.662 110.936 284.831 102.253 289.118C63.163 308.42 39.532 350.57 44.579 391.99C46.678 409.216 56.712 433.734 64.735 441.24C70.759 446.876 67.096 449.992 139.976 377.24C176.753 340.528 207.422 309.172 208.129 307.56C210.392 302.4 208.491 299.568 199.005 293.965C189.175 288.159 181.733 284.896 171.506 281.909C161.854 279.089 136.488 278.278 126.756 280.477ZM167.643 296.399C171.218 297.343 177.646 299.774 181.927 301.802L189.711 305.49L130.223 364.941L70.735 424.392L67.205 416.941C61.414 404.718 59.3889 395.406 59.3889 380.99C59.3889 366.225 61.4249 357.183 67.7179 343.99C79.3059 319.697 102.224 301.341 128.143 295.595C137.318 293.56 158.527 293.992 167.643 296.399ZM150.901 386.248C98.531 438.618 82.643 455.064 82.643 456.903C82.643 460.663 89.347 466.178 100.793 471.833C141.847 492.116 187.169 484.077 219.215 450.828C240.623 428.616 251.012 399.278 247.675 370.458C246.247 358.125 240.7 341.19 234.59 330.511C228.701 320.219 226.539 317.99 222.449 317.99C219.428 317.99 213.579 323.57 150.901 386.248ZM230.71 360.49C233.458 371.008 233.657 388.365 231.152 398.952C224.167 428.473 202.168 453.013 173.643 463.108C158.833 468.349 140.659 469.261 126.256 465.487C119.366 463.681 108.144 459.327 104.813 457.167C102.51 455.673 103.161 454.978 161.813 396.296L221.143 336.936L224.881 344.713C226.937 348.99 229.56 356.09 230.71 360.49Z" fill="white"/>
</svg>
