<svg width="29" height="29" viewBox="0 0 29 29" fill="none" xmlns="http://www.w3.org/2000/svg">
<path fill-rule="evenodd" clip-rule="evenodd" d="M0.449106 2.73059C0.618784 1.82588 1.34866 0.830376 2.1237 0.446562C2.94041 0.0421467 3.93931 0.0049057 4.7633 0.348152C5.15272 0.510265 6.91082 2.14869 9.95029 5.18148C12.4791 7.70495 14.6184 9.7695 14.7043 9.7695C14.79 9.7695 16.8916 7.72984 19.3745 5.23679C22.286 2.31334 24.1136 0.598534 24.5224 0.406944C27.0639 -0.784748 29.7331 1.87216 28.635 4.50069C28.4755 4.88261 26.7893 6.69297 23.7668 9.72766L19.1427 14.3702L23.7579 19.0029C26.2963 21.5509 28.4947 23.8789 28.6433 24.176C29.0395 24.9683 28.9071 26.3492 28.3551 27.1837C27.5262 28.4364 25.7177 28.8903 24.3623 28.1854C24.0043 27.9992 21.7747 25.8955 19.2195 23.3331L14.7089 18.8094L10.1098 23.3801C7.58035 25.8941 5.26125 28.0789 4.95627 28.2355C4.25601 28.5949 2.83189 28.61 2.16759 28.265C0.595175 27.4482 -0.0117722 25.5523 0.788931 23.9581C0.921696 23.6936 3.08949 21.4082 5.60615 18.8793L10.1819 14.2814L5.50459 9.60881C1.1576 5.26626 0.810167 4.87801 0.585672 4.11276C0.438967 3.61199 0.38526 3.07019 0.449106 2.73059Z" fill="white"/>
</svg>
