<svg width="35" height="35" viewBox="0 0 35 35" fill="none" xmlns="http://www.w3.org/2000/svg">
<path d="M6.6013 6.12548C6.21078 6.3185 6.00878 6.66862 6.00878 7.13994C6.00878 7.32398 6.0402 7.49456 6.10305 7.62473C6.17038 7.78184 7.26115 8.89505 11.0272 12.6611L15.8616 17.5L11.0093 22.3568C5.61826 27.7568 5.98185 27.3483 6.01776 27.9498C6.04918 28.5558 6.44419 28.9508 7.05017 28.9822C7.65167 29.0182 7.24319 29.3817 12.6432 23.9907L17.5 19.1384L22.3613 23.9907C27.7568 29.3817 27.3483 29.0182 27.9498 28.9822C28.5558 28.9508 28.9508 28.5558 28.9822 27.9498C29.0182 27.3483 29.3817 27.7568 23.9907 22.3613L19.1384 17.5L23.9907 12.6387C29.3817 7.24319 29.0182 7.65166 28.9822 7.05017C28.9508 6.44419 28.5558 6.04918 27.9498 6.01776C27.3483 5.98185 27.7568 5.61826 22.3568 11.0093L17.5 15.8616L12.6611 11.0272C8.89505 7.26114 7.78184 6.17037 7.62473 6.10304C7.32399 5.96389 6.90204 5.97736 6.6013 6.12548Z" fill="white"/>
</svg>
