<svg width="24" height="24" viewBox="0 0 24 24" fill="none" xmlns="http://www.w3.org/2000/svg">
<path d="M0.618643 0.12248C0.210831 0.324043 -0.000106819 0.689667 -0.000106819 1.18185C-0.000106819 1.37404 0.0327057 1.55217 0.0983307 1.6881C0.168643 1.85217 1.30771 3.01467 5.24052 6.94748L10.289 12.0006L5.22177 17.0725C-0.407919 22.7115 -0.0282318 22.285 0.00926818 22.9131C0.0420807 23.5459 0.454581 23.9584 1.08739 23.9912C1.71552 24.0287 1.28896 24.4084 6.92802 18.7787L11.9999 13.7115L17.0765 18.7787C22.7108 24.4084 22.2843 24.0287 22.9124 23.9912C23.5452 23.9584 23.9577 23.5459 23.9905 22.9131C24.028 22.285 24.4077 22.7115 18.778 17.0772L13.7108 12.0006L18.778 6.92404C24.4077 1.28967 24.028 1.71623 23.9905 1.0881C23.9577 0.455292 23.5452 0.0427933 22.9124 0.00998116C22.2843 -0.0275192 22.7108 -0.407206 17.0718 5.22248L11.9999 10.2897L6.94677 5.24123C3.01396 1.30842 1.85146 0.169355 1.68739 0.0990429C1.37333 -0.0462704 0.932706 -0.0322075 0.618643 0.12248Z" fill="#ACACAC"/>
</svg>
