<svg width="26" height="26" viewBox="0 0 26 26" fill="none" xmlns="http://www.w3.org/2000/svg">
<g clip-path="url(#clip0_44_616)">
<path d="M4.26551 1.01525V2.03087H3.42255C2.46278 2.03087 2.17333 2.08673 1.60458 2.37111C1.11708 2.61486 0.583874 3.14806 0.340124 3.63556C-0.0255013 4.36173 -0.000110669 3.57462 -0.000110669 14.0152C-0.000110669 24.4559 -0.0255013 23.6688 0.340124 24.3949C0.583874 24.8824 1.11708 25.4156 1.60458 25.6594C2.33583 26.025 1.43192 25.9996 12.9999 25.9996C24.5679 25.9996 23.664 26.025 24.3952 25.6594C24.8827 25.4156 25.4159 24.8824 25.6597 24.3949C26.0253 23.6688 25.9999 24.4559 25.9999 14.0152C25.9999 3.57462 26.0253 4.36173 25.6597 3.63556C25.4159 3.14806 24.8827 2.61486 24.3952 2.37111C23.8265 2.08673 23.537 2.03087 22.5772 2.03087H21.7343V1.01525V-0.000377655H20.7186H19.703V1.01525V2.03087H12.9999H6.29676V1.01525V-0.000377655H5.28114H4.26551V1.01525ZM4.26551 5.07775V6.09337H5.28114H6.29676V5.07775V4.06212H12.9999H19.703V5.07775V6.09337H20.7186H21.7343V5.07267V4.04689L22.4604 4.07228C23.1409 4.09259 23.2069 4.10275 23.4253 4.2297C23.5776 4.32111 23.7097 4.45314 23.8011 4.61056L23.9432 4.84923L23.9585 6.1797L23.9788 7.51525H12.9999H2.02098L2.0413 6.1797L2.05653 4.84923L2.19364 4.61056C2.34598 4.35158 2.61005 4.16368 2.88934 4.10782C2.99091 4.08751 3.3413 4.07228 3.67137 4.0672L4.26551 4.06212V5.07775ZM23.9585 16.3613L23.9432 23.1813L23.8011 23.4199C23.7097 23.5774 23.5776 23.7094 23.4202 23.8008L23.1815 23.943H12.9999H2.81825L2.57958 23.8008C2.42216 23.7094 2.29012 23.5774 2.19872 23.4199L2.05653 23.1813L2.0413 16.3613L2.03114 9.5465H12.9999H23.9686L23.9585 16.3613Z" fill="#ACACAC"/>
<path d="M3.85938 12.6953V13.7109H4.875H5.89062V12.6953V11.6797H4.875H3.85938V12.6953Z" fill="#ACACAC"/>
<path d="M7.92188 12.6953V13.7109H8.9375H9.95313V12.6953V11.6797H8.9375H7.92188V12.6953Z" fill="#ACACAC"/>
<path d="M11.9844 12.6953V13.7109H13H14.0156V12.6953V11.6797H13H11.9844V12.6953Z" fill="#ACACAC"/>
<path d="M16.0469 12.6953V13.7109H17.0625H18.0781V12.6953V11.6797H17.0625H16.0469V12.6953Z" fill="#ACACAC"/>
<path d="M20.1094 12.6953V13.7109H21.125H22.1406V12.6953V11.6797H21.125H20.1094V12.6953Z" fill="#ACACAC"/>
<path d="M3.85938 16.7578V17.7734H4.875H5.89062V16.7578V15.7422H4.875H3.85938V16.7578Z" fill="#ACACAC"/>
<path d="M7.92188 16.7578V17.7734H8.9375H9.95313V16.7578V15.7422H8.9375H7.92188V16.7578Z" fill="#ACACAC"/>
<path d="M11.9844 16.7578V17.7734H13H14.0156V16.7578V15.7422H13H11.9844V16.7578Z" fill="#ACACAC"/>
<path d="M16.0469 16.7578V17.7734H17.0625H18.0781V16.7578V15.7422H17.0625H16.0469V16.7578Z" fill="#ACACAC"/>
<path d="M20.1094 16.7578V17.7734H21.125H22.1406V16.7578V15.7422H21.125H20.1094V16.7578Z" fill="#ACACAC"/>
<path d="M3.85938 20.8203V21.8359H4.875H5.89062V20.8203V19.8047H4.875H3.85938V20.8203Z" fill="#ACACAC"/>
<path d="M7.92188 20.8203V21.8359H8.9375H9.95313V20.8203V19.8047H8.9375H7.92188V20.8203Z" fill="#ACACAC"/>
<path d="M11.9844 20.8203V21.8359H13H14.0156V20.8203V19.8047H13H11.9844V20.8203Z" fill="#ACACAC"/>
<path d="M16.0469 20.8203V21.8359H17.0625H18.0781V20.8203V19.8047H17.0625H16.0469V20.8203Z" fill="#ACACAC"/>
</g>
<defs>
<clipPath id="clip0_44_616">
<rect width="26" height="26" fill="white"/>
</clipPath>
</defs>
</svg>
