<svg width="28" height="34" viewBox="0 0 28 34" fill="none" xmlns="http://www.w3.org/2000/svg">
<path d="M9.82304 0.0730515C9.31171 0.172661 8.61445 0.551178 8.22929 0.936333C7.58515 1.58047 7.2996 2.40391 7.29296 3.59922V4.11719H5.2875C3.02304 4.11719 2.525 4.17032 1.92734 4.44922C1.38945 4.70157 0.745309 5.33907 0.499606 5.86368C-0.0582069 7.04571 0.180856 8.41368 1.09726 9.32344C1.41601 9.64219 2.1664 10.0938 2.37226 10.0938C2.42539 10.0938 2.44531 12.8961 2.45859 20.3336L2.47851 30.5801L2.65781 31.1113C2.91015 31.8484 3.26875 32.4129 3.77343 32.8977C4.29804 33.3891 4.84921 33.6945 5.53984 33.8672C6.03789 33.9934 6.30351 34 14 34C21.6965 34 21.9621 33.9934 22.4601 33.8672C24.0738 33.4555 25.2359 32.1141 25.4883 30.3676C25.5281 30.0887 25.5547 26.1242 25.5547 20.0082V10.107L25.807 10.0207C26.7566 9.71524 27.5801 8.69922 27.7527 7.63672C27.932 6.51446 27.3742 5.25938 26.4113 4.6418C25.6875 4.1836 25.5746 4.16368 23.0246 4.13047L20.7269 4.10391L20.6871 3.32696C20.6406 2.47032 20.5012 1.97227 20.1758 1.4543C19.7309 0.76368 18.9273 0.219147 18.1238 0.0664139C17.6855 -0.0132751 10.248 -0.0132751 9.82304 0.0730515ZM18.2168 1.73985C18.8144 2.06524 19.0535 2.52344 19.1 3.43321L19.1332 4.11719H14H8.87343L8.89335 3.40001C8.91992 2.76915 8.93984 2.65626 9.10585 2.37735C9.20546 2.20469 9.37812 1.99883 9.49101 1.91915C9.94921 1.59376 9.92929 1.59376 14.0996 1.61368C17.6059 1.62696 18.0375 1.64024 18.2168 1.73985ZM25.3887 5.89024C25.7273 6.06954 25.9199 6.2754 26.0594 6.60743C26.3117 7.21836 26.0992 7.95547 25.5613 8.33399L25.2758 8.53321L14.1461 8.55313C6.36992 8.56641 2.93671 8.55313 2.76406 8.5C2.1 8.30743 1.675 7.54375 1.84765 6.84649C1.97382 6.32188 2.39218 5.91016 2.94336 5.77071C3.05625 5.74415 8.08984 5.73087 14.1328 5.73087L25.123 5.74415L25.3887 5.89024ZM23.9476 19.9551C23.9609 26.6156 23.941 29.8629 23.8945 30.1816C23.7551 31.098 23.2769 31.7754 22.5133 32.1539L22.0684 32.373L14.1727 32.393C5.60625 32.4129 5.83203 32.4195 5.25429 32.0543C4.70976 31.709 4.2582 31.0383 4.1121 30.3609C4.05898 30.1086 4.03906 27.1801 4.03906 20.0813V10.1602L13.9867 10.1734L23.9277 10.1934L23.9476 19.9551Z" fill="white"/>
<path d="M8.7672 12.5442C8.66095 12.6571 8.5547 12.8364 8.52814 12.9559C8.50821 13.0688 8.48829 16.5551 8.48829 20.6989C8.48829 28.7274 8.48165 28.4817 8.8004 28.7739C9.00626 28.9532 9.35821 28.9864 9.63712 28.8536C10.1086 28.6278 10.082 29.1657 10.082 20.6192C10.082 12.2852 10.102 12.7102 9.72345 12.4578C9.63048 12.3981 9.42462 12.3516 9.2586 12.3516C9.01954 12.3516 8.92657 12.3914 8.7672 12.5442Z" fill="white"/>
<path d="M13.5219 12.5043C13.4289 12.584 13.316 12.7168 13.2762 12.7965C13.2231 12.8961 13.2032 15.1938 13.2032 20.6192C13.2032 29.1657 13.1766 28.6278 13.6481 28.8536C13.927 28.9864 14.2789 28.9532 14.4848 28.7739C14.8036 28.4817 14.7969 28.7274 14.7969 20.6989C14.7969 16.5551 14.777 13.0688 14.7571 12.9559C14.7305 12.8364 14.6243 12.6571 14.518 12.5442C14.2657 12.2918 13.7942 12.2719 13.5219 12.5043Z" fill="white"/>
<path d="M18.1438 12.5773L17.918 12.8031V20.5793C17.918 27.2664 17.9313 28.3887 18.0176 28.548C18.1172 28.7539 18.4758 28.9531 18.7348 28.9531C18.9805 28.9531 19.3324 28.6809 19.4254 28.4219C19.5316 28.1164 19.5449 13.3078 19.4453 12.9359C19.3457 12.5773 19.0402 12.3516 18.6684 12.3516C18.416 12.3516 18.3363 12.3848 18.1438 12.5773Z" fill="white"/>
</svg>
