<svg width="512" height="512" viewBox="0 0 512 512" fill="none" xmlns="http://www.w3.org/2000/svg">
<path fill-rule="evenodd" clip-rule="evenodd" d="M208.482 8.94856C167.352 17.0696 163.287 18.0516 160.087 20.6426C152.733 26.5936 152.883 25.5316 152.883 71.7466C152.883 109.556 153.061 113.978 154.944 123.263C161.988 157.986 185.224 188.441 216.883 204.441C227.143 209.626 250.904 217.92 255.499 217.92C260.477 217.92 282.971 209.908 294.884 203.892C321.664 190.368 342.439 166.161 352.4 136.873C356.063 126.103 356.597 120.023 354.148 116.999C351.715 113.994 346.586 113.746 343.918 116.503C342.897 117.558 341.091 122.02 339.903 126.42C337.098 136.807 329.369 152.708 323.132 160.92C316.12 170.152 303.504 181.625 294.28 187.157C286.889 191.59 259.007 202.92 255.491 202.92C252.863 202.92 226.787 192.966 220.883 189.709C196.798 176.422 179.594 154.848 171.212 127.42L168.462 118.42L168.422 75.4196L168.383 32.4196L173.883 31.1806C176.908 30.4996 196.592 26.5906 217.625 22.4936L255.866 15.0456L298.537 23.4436C322.005 28.0626 341.56 32.1976 341.991 32.6306C342.422 33.0646 342.912 46.7606 343.079 63.0666C343.362 90.5746 343.521 92.8646 345.289 94.8166C347.743 97.5256 353.886 97.6796 356.229 95.0906C357.695 93.4716 357.884 89.6906 357.884 62.0586C357.884 37.7876 357.578 30.1406 356.507 27.6376C354.865 23.7986 350.411 19.4356 346.711 18.0376C343.431 16.7986 257.564 -0.112436 255.13 0.000563745C254.17 0.0455637 233.177 4.07256 208.482 8.94856ZM218.51 37.4886C197.043 41.7616 186.024 44.3876 184.76 45.5316C182.998 47.1256 182.883 49.2056 182.883 79.4466C182.883 110.251 182.99 112.083 185.309 121.224C190.685 142.418 203.415 160.448 221.463 172.43C227.803 176.639 240.767 182.539 250.137 185.481C255.854 187.276 255.934 187.272 262.637 184.968C273.309 181.298 285.536 175.344 292.275 170.535C306.165 160.623 318.07 144.347 323.996 127.164L327.356 117.42L327.688 82.3856C328.01 48.2826 327.965 47.3026 325.997 45.5226C323.614 43.3656 262.238 30.8636 254.884 31.0376C252.409 31.0956 236.04 33.9986 218.51 37.4886ZM283.294 50.9666C297.643 53.7426 310.171 56.2476 311.134 56.5336C312.744 57.0126 312.884 59.1946 312.884 83.8266C312.884 113.222 311.964 119.857 306.33 131.074C297.347 148.96 284.568 160.365 264.995 167.964L255.605 171.61L246.995 168.381C226.604 160.735 213.502 149.224 204.926 131.42C198.512 118.104 197.883 113.839 197.883 83.6766V57.0616L203.633 55.8666C223.928 51.6486 252.76 46.0976 254.794 46.0166C256.12 45.9636 268.945 48.1906 283.294 50.9666ZM277.028 78.6696C275.542 80.1826 267.214 90.0816 258.522 100.67L242.72 119.92L238.246 116.253C232.897 111.871 228.542 111.387 225.727 114.864C221.983 119.488 223.166 122.644 231.633 130.626C240.114 138.622 242.437 139.761 246.161 137.754C248.236 136.636 282.716 95.7436 288.158 87.9466C290.56 84.5066 290.311 81.2566 287.428 78.3746C284.181 75.1266 280.403 75.2346 277.028 78.6696ZM2.04447 177.443C-0.707534 180.941 -0.684544 183.175 2.13346 186.318C5.21046 189.749 140.076 252.924 144.291 252.908C145.991 252.902 159.758 250.878 174.883 248.411C190.008 245.944 205.362 243.924 209.002 243.923C218.289 243.919 231.793 246.458 240.532 249.851C255.955 255.84 260.61 259.457 288.748 287.317C304.066 302.484 315.715 314.825 316.553 316.774C320.306 325.493 312.099 335.413 302.69 333.531C301.032 333.2 289.715 325.86 277.541 317.221C265.218 308.477 253.752 301.073 251.676 300.519C245.488 298.867 240.81 301.748 222.939 318.211C208.459 331.551 206.883 333.323 206.883 336.286C206.883 338.427 207.689 340.329 209.197 341.746C213.753 346.026 215.697 345.014 232.727 329.501L248.556 315.082L268.97 329.584C295.207 348.221 295.499 348.374 304.884 348.372C311.071 348.37 313.281 347.901 317.504 345.694C326.764 340.855 332.231 331.843 332.231 321.42C332.231 311.181 329.943 307.665 310.349 287.8C300.743 278.062 292.884 269.633 292.884 269.069C292.884 267.385 301.536 266.416 315.884 266.49C330.527 266.567 332.916 267.036 353.537 273.884C366.826 278.297 369.295 278.611 374.292 276.523C377.235 275.293 493.666 207.881 504.613 201.068C510.055 197.681 511.605 194.216 509.5 190.144C507.902 187.055 506.1 185.92 502.79 185.92C501.728 185.92 471.141 203.262 434.819 224.458L368.779 262.996L354.963 258.481C347.364 255.997 336.925 253.23 331.765 252.331C319.447 250.186 301.951 250.846 288.692 253.956L279 256.229L275.533 253.186C267.078 245.762 252.832 237.922 240.884 234.118C221.18 227.844 206.55 227.771 170.67 233.769L144.957 238.066L78.6704 206.89C38.3974 187.949 10.7785 175.514 8.29447 175.205C4.71747 174.76 3.93347 175.041 2.04447 177.443ZM3.22049 315.397C0.345492 317.41 -0.4756 321.332 1.2764 324.679C2.4504 326.921 10.9284 331.42 47.8174 349.379L92.9235 371.338L99.6535 379.32C108.285 389.559 121.806 400.741 135.204 408.72C142.615 413.134 146.443 416.09 147.989 418.592C150.494 422.644 157.533 427.479 163.118 428.983C166.79 429.972 166.884 430.113 166.905 434.709C166.962 447.049 177.338 457.681 191.133 459.538C195.562 460.134 195.883 460.374 195.883 463.081C195.883 466.77 198.04 471.949 201.427 476.389C204.896 480.937 214.849 485.92 220.462 485.92C224.691 485.92 224.728 485.951 225.666 490.35C228.529 503.774 240.757 512.866 254.376 511.698C259.695 511.242 266.688 508.365 270.995 504.861L273.605 502.737L277.995 505.061C281.519 506.927 283.96 507.389 290.384 507.403C297.323 507.418 299.003 507.056 303.05 504.677C309.723 500.755 314.71 494.5 316.611 487.67L318.211 481.92H322.352C327.681 481.92 335.848 477.862 339.97 473.168C343.544 469.097 346.829 462.488 346.862 459.299C346.88 457.523 347.669 457.073 351.71 456.537C363.048 455.033 372.728 447.026 375.577 436.794L377.143 431.168L381.945 430.599C387.273 429.968 393.034 427.347 397.673 423.444C401.286 420.404 405.884 411.654 405.884 407.819C405.884 405.641 406.815 404.569 410.634 402.351C421.645 395.956 430.013 388.308 438.918 376.497L443.384 370.574L476.637 354.304C505.046 340.404 510.042 337.635 510.932 335.293C512.354 331.552 510.537 327.433 506.778 325.876C503.322 324.444 503.56 324.343 460.867 345.256L433.353 358.734L426.655 367.703C420.181 376.373 414.558 381.841 406.564 387.243L402.746 389.824L395.343 381C382.409 365.585 377.779 362.589 366.884 362.589C359.153 362.589 354.651 364.331 348.838 369.573C344.446 373.532 339.911 381.694 339.894 385.67C339.886 387.55 339.337 387.92 336.562 387.92C325.868 387.92 314.243 397.062 311.251 407.824C309.583 413.822 309.498 413.921 305.97 413.964C295.013 414.098 282.948 424.415 281.237 435.114C280.67 438.66 280.424 438.864 276.012 439.488C260.434 441.688 249.818 454.244 251.147 468.896C251.75 475.545 253.638 479.577 259.276 486.267L263.36 491.114L260.574 493.51C255.358 497.996 248.137 497.9 243.52 493.284C239.511 489.274 239.139 484.809 242.306 478.704C245.329 472.878 245.093 468.88 241.582 466.421C238.451 464.228 235.925 464.59 230.984 467.938C224.6 472.264 218.884 472.121 214.283 467.52C211.455 464.692 210.884 463.388 210.89 459.77C210.894 457.112 211.669 454.253 212.883 452.42C215.745 448.099 215.492 443.544 212.248 440.993C208.804 438.283 207.895 438.36 201.223 441.92C194.898 445.295 194.821 445.308 189.581 443.853C182.577 441.908 179.711 432.995 183.887 426.146C186.54 421.793 186.444 417.528 183.633 414.875C181.764 413.112 180.705 412.876 177.383 413.482C168.837 415.041 165.163 414.562 161.935 411.47C160.27 409.875 158.633 407.103 158.296 405.31C157.093 398.897 159.058 396.169 175.494 381.42C195.879 363.127 198.244 360.498 197.389 357.074C196.378 353.02 193.946 350.92 190.265 350.92C187.387 350.92 184.442 353.186 167.63 368.337C151.836 382.57 147.864 386.69 145.905 390.872C143.194 396.66 143.31 396.658 135.113 391.039C126.481 385.121 116.883 376.38 108.753 367.033C102.922 360.329 100.247 358.093 95.4214 355.892C92.1004 354.378 71.4474 344.314 49.5254 333.529C27.6024 322.744 8.69047 313.92 7.49747 313.92C6.30447 313.92 4.37949 314.585 3.22049 315.397ZM371.166 378.266C374.567 379.688 388.517 395.085 390.601 399.716C392.305 403.503 391.207 407.863 387.595 411.66C384.022 415.414 379.132 416.68 374.927 414.938C372.342 413.867 365.968 407.299 357.609 397.093C352.421 390.759 354.699 381.651 362.299 378.341C366.228 376.631 367.236 376.622 371.166 378.266ZM342.272 404.051C344.643 405.131 358.056 419.978 360.599 424.338C365.129 432.105 356.56 443.207 347.366 441.483C342.139 440.502 326.198 422.627 325.23 416.662C323.791 407.796 333.966 400.266 342.272 404.051ZM319.202 436.04C322.966 439.956 327.359 444.973 328.964 447.19C335.6 456.35 330.333 466.963 319.184 466.898C314.495 466.87 313.001 465.691 303.477 454.494C296.546 446.346 295.884 445.187 295.884 441.209C295.884 433.715 300.652 429.038 308.371 428.96C312.027 428.923 312.928 429.513 319.202 436.04ZM282.612 455.401C285.249 456.158 299.43 471.983 301.708 476.711C303.118 479.639 303.133 480.464 301.839 484.179C299.306 491.449 291.528 494.858 285.084 491.522C282.426 490.146 269.54 475.805 267.168 471.582C265.436 468.497 265.609 464.194 267.601 460.821C269.459 457.677 276.419 453.68 278.871 454.349C279.703 454.576 281.386 455.049 282.612 455.401Z" fill="white"/>
</svg>
