<svg width="30" height="31" viewBox="0 0 30 31" fill="none" xmlns="http://www.w3.org/2000/svg">
<path fill-rule="evenodd" clip-rule="evenodd" d="M10.4022 1.09909C10.2358 1.187 10.0073 1.38989 9.89453 1.55005L9.68945 1.8412V4.55759V7.27406L9.86035 7.52644C9.95435 7.66535 10.1517 7.86304 10.2989 7.96579C10.5338 8.12985 10.6304 8.15268 11.09 8.15268C11.5356 8.15268 11.6512 8.12725 11.8659 7.98178C12.0049 7.88779 12.2025 7.69057 12.3053 7.54353L12.4922 7.27618L12.5264 5.56111L12.5605 3.84604H19.8408H27.1211V15.5013V27.1566H19.8408H12.5605L12.5264 25.4415L12.4922 23.7264L12.3053 23.4591C12.2025 23.3121 12.0049 23.1148 11.8659 23.0208C11.6506 22.875 11.5359 22.8499 11.0846 22.8499C10.6072 22.8499 10.5273 22.8699 10.2646 23.055C10.1044 23.1678 9.90082 23.3976 9.81209 23.5657L9.65076 23.8712L9.67011 26.5103L9.68945 29.1493L9.86035 29.4016C9.95435 29.5403 10.1517 29.738 10.2989 29.8408L10.5664 30.0277H19.8408H29.1152L29.3828 29.8408C29.5299 29.738 29.7273 29.5403 29.8213 29.4014L29.9922 29.1491V15.5013V1.85357L29.8213 1.60119C29.7273 1.46228 29.53 1.26459 29.3828 1.16184L29.1152 0.974946L19.9101 0.957104L10.7049 0.939331L10.4022 1.09909ZM16.3203 9.79802C15.5921 10.176 15.2735 11.0168 15.5969 11.7074C15.6721 11.8683 16.1357 12.3884 16.7233 12.9711C17.2724 13.5158 17.7217 13.9849 17.7217 14.0136C17.7217 14.0423 14.1736 14.0658 9.8369 14.0658H1.9522L1.65087 14.2248C1.48517 14.3123 1.25732 14.5149 1.14453 14.6751C0.959346 14.938 0.939453 15.0176 0.939453 15.496C0.939453 15.9623 0.961807 16.0578 1.12635 16.2933C1.22909 16.4404 1.42679 16.6378 1.56563 16.7318L1.81808 16.9027L9.76991 16.9206C14.1433 16.9305 17.7217 16.9616 17.7217 16.9898C17.7217 17.0181 17.2724 17.4868 16.7233 18.0315C16.1357 18.6143 15.6721 19.1343 15.5969 19.2953C15.4347 19.6416 15.4333 20.1057 15.5933 20.458C15.727 20.7521 16.1277 21.1442 16.4007 21.2481C16.6895 21.3579 17.2959 21.3228 17.5706 21.1805C17.7101 21.1082 18.9047 19.9624 20.2253 18.6341C22.5543 16.2916 22.629 16.2083 22.7102 15.8602C22.7762 15.5771 22.7762 15.4256 22.7102 15.1424C22.629 14.7943 22.5543 14.711 20.2253 12.3685C18.9047 11.0402 17.7101 9.89441 17.5706 9.82215C17.2564 9.65939 16.6115 9.64695 16.3203 9.79802Z" fill="white"/>
</svg>
