<svg width="512" height="512" viewBox="0 0 512 512" fill="none" xmlns="http://www.w3.org/2000/svg">
<path fill-rule="evenodd" clip-rule="evenodd" d="M214.159 0.987246C206.715 2.23125 193.772 7.17025 186.697 11.4682C169.924 21.6572 156.777 39.7872 151.839 59.5402C150.975 62.9962 148.936 65.4192 139.643 74.0402C121.885 90.5132 117.155 100.024 117.995 117.576C118.346 124.922 118.968 127.603 121.659 133.352C125.458 141.471 130.575 148.036 135.798 151.492C139.328 153.828 139.701 154.606 142.693 165.858L145.856 177.754L143.237 180.572C138.142 186.056 136.37 190.783 136.37 198.891C136.37 207.862 138.382 212.386 145.145 218.619C149.828 222.936 157.289 225.891 163.506 225.891C166.815 225.891 166.824 225.905 166.824 230.819C166.824 245.988 172.16 265.145 179.878 277.687C188.224 291.248 202.317 304.504 215.62 311.305C218.863 312.963 218.912 313.089 218.62 319.058L218.324 325.126L187.324 342.93C157.033 360.327 153.876 362.614 153.839 367.186C153.817 369.83 158.342 373.891 161.309 373.891C162.809 373.891 175.19 367.378 190.958 358.295C205.849 349.718 218.36 343.08 218.76 343.545C219.16 344.01 220.003 346.212 220.635 348.439C222.27 354.204 227.349 361.437 232.551 365.409C245.736 375.476 264.313 375.596 277.77 365.699C282.769 362.023 289.481 352.235 290.414 347.26C290.764 345.395 291.439 343.629 291.914 343.335C292.761 342.812 355.17 378.29 363.63 384.105C379.854 395.255 394.616 415.203 401.433 435.191C405.783 447.947 406.824 457.188 406.824 483.067V506.982L409.279 509.436C412.278 512.436 415.694 512.568 419.189 509.818L421.824 507.746V482.449C421.824 454.329 420.8 445.584 415.738 430.475C409.852 412.907 399.668 396.767 386.217 383.689C374.533 372.33 375.679 373.078 327.326 345.238L292.324 325.085L292.028 319.07C291.764 313.692 291.957 312.984 293.845 312.384C297.41 311.253 313.508 300.055 316.244 296.804C319.483 292.954 319.525 289.501 316.369 286.346C312.715 282.691 309.981 283.279 301.8 289.477C286.679 300.932 273.936 305.314 255.824 305.285C242.866 305.265 235.537 303.675 224.324 298.453C209.532 291.565 197.292 279.491 189.879 264.474C182.59 249.711 182.373 247.85 182.347 199.974L182.324 157.556L194.324 154.235C210.568 149.74 217.154 149.783 236.462 154.509C250.156 157.86 252.056 158.089 262.284 157.622C271.051 157.221 275.075 156.506 281.831 154.149C293.602 150.044 298.992 149.643 315.324 151.661L329.324 153.391L329.61 192.891C329.918 235.403 329.309 244.326 325.291 256.165C322.113 265.525 322.144 268.211 325.459 270.818C328.473 273.189 329.738 273.343 333.21 271.761C337.966 269.594 343.396 252.272 344.473 235.828L345.108 226.141L350.391 225.596C360.46 224.557 368.404 219.247 373.139 210.391C374.778 207.325 375.278 204.639 375.278 198.891C375.278 190.784 373.506 186.056 368.413 180.574L365.796 177.757L369.402 164.074C372.605 151.922 373.361 150.115 376.166 147.924C389.001 137.898 395.508 122.265 392.938 107.629C391.492 99.3892 386.943 90.3742 381.628 85.2112C379.261 82.9132 373.148 78.4132 368.045 75.2112C358.786 69.4042 358.758 69.3742 355.424 61.7002C344.49 36.5282 323.514 21.7212 296.324 19.9812C285.337 19.2782 285.306 19.2692 270.324 12.1972C262.074 8.30325 253.074 4.41425 250.324 3.55625C238.899 -0.0127537 225.742 -0.946754 214.159 0.987246ZM239.616 16.4772C244.473 17.4772 252.503 20.4872 261.324 24.6152C282 34.2912 281.447 34.1132 293.324 34.9012C310.149 36.0182 320.296 40.4702 331.054 51.4552C336.015 56.5222 341.761 66.4542 343.88 73.6252C345.428 78.8652 346.206 79.5692 359.542 87.7902C367.807 92.8852 371.062 95.5362 373.488 99.1482C381.882 111.647 379.088 126.892 366.77 135.815C359.496 141.084 355.828 141.27 327.012 137.829C297.428 134.296 293.682 134.422 277.492 139.496C263.006 144.036 256.775 144.012 237.771 139.338C216.415 134.085 210.358 134.271 185.668 140.933C169.738 145.232 165.437 146.043 160.803 145.623C153.343 144.946 146.127 141.135 140.537 134.917C134.534 128.24 132.43 121.933 133.039 112.445C133.736 101.583 136.677 97.0402 151.939 83.2492L164.652 71.7622L166.273 64.4752C171.68 40.1722 190.204 21.7262 214.413 16.5362C223.57 14.5722 230.284 14.5572 239.616 16.4772ZM48.3047 111.361C39.7437 113.225 35.2417 115.323 33.2357 118.385C31.0867 121.665 32.0957 125.272 35.9687 128.155C38.6027 130.117 38.6377 130.116 44.9687 128.044C53.8927 125.122 60.2917 124.518 67.8237 125.888C77.3047 127.611 84.4627 131.386 91.3957 138.319C98.3487 145.272 102.148 152.494 103.924 162.132C107.331 180.62 96.9577 200.353 79.2957 208.984C72.5947 212.258 71.8757 212.391 60.8237 212.391C49.9587 212.391 48.9507 212.214 42.5647 209.19C33.2117 204.759 25.6437 197.33 21.0827 188.101C17.8337 181.527 17.3597 179.599 17.0067 171.526C16.6577 163.533 16.9427 161.453 19.2917 154.891C23.1477 144.119 23.3747 141.825 20.8567 139.141C18.0257 136.123 12.8847 136.133 10.0397 139.161C5.70666 143.774 2.57366 154.484 2.07466 166.391C1.30466 184.794 6.46266 198.461 18.8577 210.857C42.8777 234.876 81.4967 233.852 104.357 208.591C116.989 194.633 122.187 175.706 118.356 157.625C114.523 139.539 103.374 124.892 87.3237 116.859C74.3367 110.359 61.3257 108.525 48.3047 111.361ZM439.101 111.402C416.656 116.279 399.575 132.906 393.796 155.5C384.463 191.99 412.884 228.141 450.824 228.039C467.723 227.993 481.396 222.393 492.864 210.819C504.264 199.314 509.824 185.672 509.824 169.207C509.824 152.41 504.592 139.683 492.806 127.808C478.193 113.085 458.725 107.138 439.101 111.402ZM465.994 127.864C479.103 132.845 489.058 143.265 492.951 156.083C496.063 166.329 495.358 178.016 491.076 187.167C486.697 196.523 479.303 204.051 469.951 208.673C462.582 212.315 462.191 212.391 450.876 212.391C439.765 212.391 439.058 212.261 432.352 208.984C419.334 202.623 410.32 190.589 407.595 175.934C406.153 168.18 407.657 158.245 411.514 150.054C414.821 143.031 424.55 133.138 431.324 129.911C442.387 124.641 455.477 123.868 465.994 127.864ZM430.279 148.346C426.42 152.204 427.115 154.956 433.946 162.872L440.068 169.967L433.946 176.343C429.311 181.169 427.824 183.425 427.824 185.63C427.824 189.52 431.497 192.891 435.736 192.891C438.469 192.891 439.956 191.878 444.603 186.849L450.186 180.808L456.282 186.849C461.449 191.97 462.921 192.891 465.946 192.891C470.406 192.891 472.835 190.379 472.791 185.812C472.764 183.066 471.598 181.109 466.878 175.891L460.999 169.391L466.912 163.228C471.859 158.07 472.824 156.485 472.824 153.517C472.824 149.142 469.68 145.891 465.45 145.891C463.059 145.891 461.29 147.148 456.7 152.108L450.947 158.326L444.472 152.108C437.182 145.108 434.284 144.34 430.279 148.346ZM79.3237 152.041C78.2237 152.641 71.8467 158.547 65.1527 165.167L52.9827 177.202L49.7207 174.458C47.1437 172.289 45.8197 171.842 43.4047 172.325C39.4977 173.106 38.0287 174.618 37.2127 178.694C36.6027 181.746 37.0437 182.456 43.6517 189.063C53.5477 198.96 53.0907 199.12 73.5737 178.572C88.5737 163.524 89.8237 161.992 89.8237 158.653C89.8237 152.867 84.2507 149.357 79.3237 152.041ZM355.674 156.452C355.866 156.62 355.554 158.25 354.98 160.074C354.406 161.898 353.444 165.303 352.842 167.641C351.819 171.612 351.519 171.891 348.285 171.891H344.824V163.538V155.185L350.074 155.666C352.961 155.931 355.481 156.285 355.674 156.452ZM166.824 166.391V171.891H163.363C160.128 171.891 159.83 171.613 158.813 167.641C158.215 165.303 157.537 162.829 157.306 162.141C157.008 161.252 158.324 160.891 161.855 160.891H166.824V166.391ZM166.824 198.891V210.891H164.292C157.608 210.891 150.831 204.85 150.831 198.891C150.831 192.921 157.358 187.026 164.074 186.93L166.824 186.891V198.891ZM353.334 188.331C357.176 189.936 360.817 195.074 360.817 198.891C360.817 204.85 354.04 210.891 347.356 210.891H344.824V198.891V186.891H347.356C348.749 186.891 351.439 187.539 353.334 188.331ZM37.1417 257.099C17.3547 276.781 16.1177 278.692 19.2457 284.74C21.4227 288.95 23.5957 289.891 31.1427 289.891H37.5937L38.2557 295.197C39.2617 303.247 44.1017 316.143 48.8537 323.437C55.1327 333.075 64.7977 341.504 76.7147 347.736C89.5897 354.469 92.1257 355.21 96.3107 353.461C104.359 350.098 104.897 343.539 97.9527 333.46C95.2747 329.572 91.9047 324.054 90.4657 321.198C87.2457 314.811 83.1187 300.839 82.6807 294.843L82.3547 290.391L89.6797 289.891C95.8457 289.47 97.3076 289.015 98.9267 287.015C101.283 284.103 102.227 280.628 101.473 277.641C101.161 276.403 92.6467 267.179 82.5527 257.141C57.9887 232.714 61.6537 232.717 37.1417 257.099ZM429.095 257.141C419.001 267.179 410.487 276.403 410.175 277.641C409.421 280.628 410.365 284.103 412.721 287.015C414.34 289.015 415.802 289.47 421.968 289.891L429.293 290.391L428.967 294.843C428.529 300.839 424.402 314.811 421.182 321.198C419.743 324.054 416.373 329.572 413.695 333.46C406.751 343.539 407.289 350.098 415.337 353.461C419.522 355.21 422.058 354.469 434.933 347.736C446.85 341.504 456.515 333.075 462.794 323.437C467.546 316.143 472.386 303.247 473.392 295.197L474.054 289.891H480.505C488.052 289.891 490.225 288.95 492.402 284.74C495.53 278.692 494.293 276.781 474.506 257.099C449.994 232.717 453.659 232.714 429.095 257.141ZM69.8237 265.391L79.2837 274.891H75.5087C72.7757 274.891 71.0146 275.609 69.1327 277.491C66.5767 280.047 66.5427 280.267 67.1537 290.241C67.8837 302.156 70.5057 313.162 75.2027 324.025L78.5817 331.842L74.0757 328.616C61.2037 319.403 52.8237 302.518 52.8237 285.796C52.8237 278.282 50.1237 274.891 44.1387 274.891H40.3637L49.8237 265.391C55.0267 260.166 59.5267 255.891 59.8237 255.891C60.1207 255.891 64.6207 260.166 69.8237 265.391ZM461.824 265.391L471.284 274.891H467.509C461.524 274.891 458.824 278.282 458.824 285.796C458.824 302.518 450.444 319.403 437.572 328.616L433.066 331.842L436.445 324.025C441.142 313.162 443.764 302.156 444.494 290.241C445.105 280.267 445.071 280.047 442.515 277.491C440.633 275.609 438.872 274.891 436.139 274.891H432.364L441.824 265.391C447.027 260.166 451.527 255.891 451.824 255.891C452.121 255.891 456.621 260.166 461.824 265.391ZM253.324 320.251C259.374 320.328 267.137 320.031 270.574 319.591L276.824 318.792V329.873C276.824 342.043 275.653 346.352 271.021 351.233C260.282 362.548 241.391 359.071 235.377 344.673C234.281 342.048 233.824 337.597 233.824 329.529V318.104L238.074 319.107C240.412 319.659 247.274 320.174 253.324 320.251ZM127.41 380.823C114.297 391.243 100.47 412.585 94.4337 431.72C89.7567 446.546 88.8237 454.985 88.8237 482.449V507.746L91.4587 509.818C94.9537 512.568 98.3697 512.436 101.369 509.436L103.824 506.982V483.067C103.824 451.46 105.808 439.956 114.203 422.876C119.057 413 124.521 405.273 133.074 396.19C141.656 387.075 142.519 384.495 138.369 380.346C135.131 377.107 131.909 377.247 127.41 380.823Z" fill="white"/>
</svg>
