<svg width="43" height="43" viewBox="0 0 43 43" fill="none" xmlns="http://www.w3.org/2000/svg">
<path d="M20.2405 0.0587769C16.8979 0.369522 13.9921 1.72167 11.6741 4.03963C7.98719 7.72655 6.65184 14.0422 8.40711 19.4844C9.0202 21.3908 9.21336 21.6931 15.4534 30.6963C18.6448 35.3154 21.2903 39.1199 21.3239 39.1619C21.3575 39.1955 24.0114 35.433 27.2196 30.8054C31.5532 24.5486 33.1657 22.1467 33.51 21.458C35.8196 16.864 35.5928 10.8592 32.9389 6.42479C31.3768 3.82127 28.7565 1.73846 25.7919 0.755848C23.9358 0.134365 21.9706 -0.109192 20.2405 0.0587769ZM22.6005 1.51171C26.7493 1.93163 30.2934 4.32518 32.1579 7.9701C33.0985 9.80096 33.5772 11.7326 33.6528 14.0002C33.7536 16.948 33.0817 19.6271 31.7044 21.7687C30.5538 23.5408 21.3827 36.7011 21.3239 36.6424C21.2483 36.5584 11.9848 23.1797 11.2794 22.1299C9.68367 19.7531 8.9866 17.1664 9.09578 13.9918C9.17137 11.7578 9.60809 9.91854 10.4983 8.14647C12.7575 3.61131 17.5194 0.999405 22.6005 1.51171Z" fill="white"/>
<path d="M20.9125 8.65029C18.8633 8.91904 17.2592 10.2964 16.6629 12.3036C16.5621 12.6479 16.5117 13.0763 16.5117 13.6474C16.5201 14.3612 16.5537 14.5964 16.7637 15.2011C17.2256 16.5112 18.0822 17.5106 19.2748 18.0901C20.7193 18.8124 22.2814 18.8124 23.726 18.0901C24.9185 17.5106 25.7752 16.5112 26.2371 15.2011C26.4471 14.5964 26.4807 14.3612 26.4891 13.6474C26.4891 12.6731 26.3463 12.102 25.8844 11.2202C24.9773 9.48174 22.8693 8.38994 20.9125 8.65029ZM22.5418 10.204C24.1963 10.7079 25.2629 12.396 25.0277 14.1345C24.8178 15.6294 23.558 16.8892 22.0127 17.1411C20.5346 17.3763 18.9305 16.5196 18.2922 15.1423C17.3852 13.219 18.351 10.9179 20.3498 10.2376C20.8957 10.0528 21.9791 10.036 22.5418 10.204Z" fill="white"/>
<path d="M12.3039 30.8812C8.0291 31.4523 4.18261 32.6365 2.06621 34.0474C-0.0753967 35.4751 -0.562506 37.1884 0.789642 38.5742C2.95644 40.8082 8.22226 42.2695 16.2092 42.849C18.1492 42.9917 24.8512 42.9917 26.7912 42.849C34.7781 42.2695 40.0439 40.8082 42.2107 38.5742C42.9918 37.7679 43.185 36.7685 42.7146 35.8699C41.69 33.8962 37.9695 32.1578 32.7541 31.2087C30.1926 30.7468 29.6971 30.7468 29.4871 31.2087C29.3443 31.5363 29.3779 31.7378 29.6299 31.9898C29.8314 32.1914 29.9742 32.2333 30.9064 32.3677C34.3666 32.8464 37.7008 33.8207 39.6996 34.946C40.5478 35.4248 41.4549 36.3066 41.5305 36.7265C41.816 38.2214 37.8268 39.9263 31.9562 40.8166C28.4289 41.3541 25.9262 41.522 21.5002 41.522C17.0742 41.522 14.5715 41.3541 11.0441 40.8166C5.17363 39.9263 1.18437 38.2214 1.46992 36.7265C1.5455 36.3066 2.45253 35.4248 3.30078 34.946C5.2996 33.8207 8.63378 32.8464 12.0939 32.3677C13.0262 32.2333 13.1689 32.1914 13.3789 31.9898C13.6225 31.7378 13.656 31.5363 13.5133 31.2171C13.3537 30.8728 13.0346 30.7804 12.3039 30.8812Z" fill="white"/>
</svg>
