<svg width="55" height="55" viewBox="0 0 55 55" fill="none" xmlns="http://www.w3.org/2000/svg">
<g clip-path="url(#clip0_219_269)">
<path d="M26.4278 2.34013C25.2548 2.88296 24.9225 3.65609 24.9225 5.84258V7.47992L23.8529 7.80717C22.4433 8.23817 21.0042 9.10665 19.6945 10.3163C15.8408 13.8758 14.9545 19.763 17.5892 24.3008C17.918 24.867 18.7577 25.9007 19.4552 26.598C21.6619 28.8038 23.7317 29.7144 27.172 29.9929C28.9077 30.1334 29.2392 30.2105 30.246 30.7079C31.6151 31.3842 32.5297 32.3292 33.2154 33.776C33.6689 34.7329 33.7169 34.9781 33.7169 36.3389C33.7169 37.6996 33.6689 37.9448 33.2154 38.9017C32.5175 40.3743 31.6192 41.2914 30.1769 42.0039C29.0468 42.5622 28.8945 42.5955 27.466 42.5955C26.0987 42.5955 25.8529 42.5478 24.9225 42.1029C22.6705 41.0256 21.4123 39.222 21.1357 36.6742C20.9839 35.2767 20.7628 34.8175 19.9493 34.2103C19.624 33.9675 19.2738 33.8837 18.5842 33.8837C17.5917 33.8837 17.075 34.1438 16.477 34.9447C15.544 36.1938 16.2888 40.0461 17.9584 42.6079C19.2543 44.5962 21.693 46.4697 23.8399 47.1264L24.8965 47.4495L24.9491 49.3278C25.006 51.3613 25.1264 51.685 26.0927 52.4062C26.7062 52.8641 28.2094 52.8641 28.8229 52.4062C29.7867 51.6869 29.9096 51.3587 29.9659 49.353L30.018 47.4999L31.2683 47.0572C36.0524 45.3633 39.1715 40.5948 38.8114 35.5252C38.6126 32.7243 37.5346 30.4128 35.4604 28.3394C33.2537 26.1336 31.1839 25.223 27.7437 24.9445C26.0079 24.804 25.6764 24.7269 24.6696 24.2295C23.3005 23.5531 22.3859 22.6082 21.7003 21.1614C21.2461 20.2032 21.1987 19.9604 21.1987 18.5903C21.1987 17.1623 21.232 17.0101 21.7906 15.8804C22.5033 14.4387 23.4208 13.5408 24.894 12.8432C25.8512 12.3899 26.0965 12.3419 27.4578 12.3419C28.8191 12.3419 29.0644 12.3899 30.0216 12.8432C32.2301 13.8889 33.5046 15.7271 33.7799 18.2632C33.9318 19.6607 34.1528 20.1199 34.9663 20.727C35.5799 21.185 37.083 21.185 37.6966 20.727C38.791 19.9104 39.0442 18.9535 38.7116 16.8923C38.0317 12.6793 34.9944 9.06167 31.0754 7.79751L30.0185 7.45664L29.9662 5.5939C29.91 3.5875 29.7855 3.24964 28.8464 2.54858C28.3212 2.15671 27.0593 2.04789 26.4278 2.34013Z" fill="white"/>
</g>
<defs>
<clipPath id="clip0_219_269">
<rect width="55" height="55" fill="white"/>
</clipPath>
</defs>
</svg>
