<svg width="15" height="25" viewBox="0 0 15 25" fill="none" xmlns="http://www.w3.org/2000/svg">
<path d="M1.03366 23.882C1.23191 24.3401 1.75144 24.5998 2.28464 24.4973C2.51706 24.4563 3.18015 23.8137 8.26609 18.7346C13.3452 13.6486 13.9878 12.9855 14.0288 12.7531C14.1518 12.1105 14.48 12.4865 8.26609 6.26582C2.05222 0.0519491 2.42136 0.380074 1.77878 0.503121C1.44382 0.564644 1.03366 0.974801 0.972139 1.30976C0.849092 1.95234 0.568819 1.62422 6.22214 7.29121L11.4311 12.5002L6.25632 17.6818C3.35788 20.5803 1.04734 22.9387 1.00632 23.0481C0.910617 23.3078 0.924289 23.6291 1.03366 23.882Z" fill="white"/>
</svg>
