<svg width="44" height="44" viewBox="0 0 44 44" fill="none" xmlns="http://www.w3.org/2000/svg">
<g clip-path="url(#clip0_34_114)">
<path d="M20.0686 0.0408249C15.8232 0.453323 11.9045 2.01739 8.46699 4.66426C6.79121 5.95332 4.61699 8.37676 3.3623 10.3533C2.8209 11.2041 1.76387 13.3697 1.38574 14.401C0.964648 15.5525 0.50918 17.3229 0.285742 18.6893C0.0193359 20.365 0.0193359 23.5447 0.285742 25.2205C0.672461 27.5924 1.28262 29.5002 2.32246 31.6229C3.45684 33.9346 4.63418 35.576 6.5248 37.4752C8.42402 39.3658 10.0654 40.5432 12.3771 41.6775C14.4998 42.7174 16.4076 43.3275 18.7795 43.7143C20.4553 43.9807 23.635 43.9807 25.3107 43.7143C27.6826 43.3275 29.5904 42.7174 31.7131 41.6775C34.0248 40.5432 35.6662 39.3658 37.5654 37.4752C39.4561 35.576 40.6334 33.9346 41.7678 31.6229C42.524 30.0846 42.9021 29.0791 43.3146 27.5322C43.8561 25.4697 43.985 24.3439 43.985 21.9549C43.985 19.5658 43.8561 18.44 43.3146 16.3775C42.9021 14.8307 42.524 13.8252 41.7678 12.2869C40.6334 9.9752 39.4561 8.33379 37.5654 6.43457C35.6662 4.54395 34.0248 3.3666 31.7131 2.23223C29.599 1.19239 27.6396 0.573635 25.3537 0.2127C24.0904 0.0150414 21.2717 -0.0794868 20.0686 0.0408249ZM25.3537 1.92286C29.7537 2.6791 33.5006 4.66426 36.6115 7.86973C39.5764 10.9291 41.424 14.6158 42.1287 18.9041C42.3521 20.2447 42.3521 23.665 42.1287 25.0057C41.424 29.2939 39.5764 32.9807 36.6115 36.04C33.449 39.2971 29.6076 41.2994 25.0959 42.0385C23.7553 42.2619 20.335 42.2619 18.9943 42.0385C14.4826 41.2994 10.6412 39.2971 7.47871 36.04C4.51387 32.9807 2.66621 29.2939 1.96152 25.0057C1.73809 23.665 1.73809 20.2447 1.96152 18.9041C2.66621 14.6158 4.51387 10.9291 7.47871 7.86973C10.9334 4.31192 14.9896 2.34395 20.1545 1.7252C20.3178 1.70801 21.3232 1.69942 22.3889 1.71661C23.867 1.73379 24.5631 1.78535 25.3537 1.92286Z" fill="white"/>
<path d="M21.7441 11.032C21.6496 11.075 21.4949 11.1953 21.4004 11.2984C21.2371 11.4789 21.2285 11.625 21.2027 16.2914L21.1855 21.0953L16.1582 21.1125L11.1309 21.1383L10.8988 21.3703C10.7184 21.5508 10.6582 21.6969 10.6582 21.9547C10.6582 22.2125 10.7184 22.3586 10.8988 22.5305L11.1309 22.7711L16.1582 22.7969L21.1855 22.8141L21.2027 28.0563L21.2285 33.2984L21.4691 33.5305C21.7957 33.857 22.2941 33.857 22.6207 33.5305L22.8613 33.2984L22.8871 28.0563L22.9043 22.8141L27.9316 22.7969L32.959 22.7711L33.191 22.5305C33.5176 22.2039 33.5176 21.7055 33.191 21.3703L32.959 21.1383L27.9316 21.1125L22.9043 21.0953L22.8871 16.2828L22.8613 11.4703L22.6465 11.2555C22.4059 11.0234 22.0105 10.9203 21.7441 11.032Z" fill="white"/>
</g>
<defs>
<clipPath id="clip0_34_114">
<rect width="44" height="44" fill="white"/>
</clipPath>
</defs>
</svg>
