<svg width="15" height="25" viewBox="0 0 15 25" fill="none" xmlns="http://www.w3.org/2000/svg">
<path d="M13.9663 1.11796C13.7681 0.65995 13.2486 0.400184 12.7154 0.502723C12.4829 0.543739 11.8199 1.18632 6.73391 6.26542C1.65481 11.3514 1.01223 12.0145 0.971218 12.2469C0.848171 12.8895 0.520046 12.5135 6.73391 18.7342C12.9478 24.9481 12.5786 24.6199 13.2212 24.4969C13.5562 24.4354 13.9663 24.0252 14.0279 23.6902C14.1509 23.0477 14.4312 23.3758 8.77786 17.7088L3.56887 12.4998L8.74368 7.31816C11.6421 4.41972 13.9527 2.06132 13.9937 1.95194C14.0894 1.69218 14.0757 1.37089 13.9663 1.11796Z" fill="white"/>
</svg>
