<svg width="39" height="44" viewBox="0 0 39 44" fill="none" xmlns="http://www.w3.org/2000/svg">
<path d="M17.6185 0.90447L17.6185 0.904473C16.3474 1.11975 15.3218 1.46444 14.0584 2.09856C8.08911 5.09466 5.70059 12.3666 8.71448 18.3577C9.25422 19.4307 9.62088 19.975 10.4513 20.9378C11.7535 22.448 13.8344 23.8095 15.832 24.4633L15.832 24.4633C20.5745 26.0151 25.9343 24.4109 29.0666 20.5035C32.7551 15.9025 32.6138 9.39983 28.7324 4.89876L28.543 5.06203L28.7324 4.89876C26.0824 1.82592 21.6286 0.2255 17.6185 0.90447ZM1.02233 42.8843L1.02236 42.8843L38.0207 42.54L38.2433 42.6538C38.2433 42.6538 38.2433 42.6538 38.2434 42.6538C38.3537 42.4379 38.424 42.2679 38.4507 42.0127C38.4755 41.7758 38.4621 41.468 38.4321 40.9775C38.1964 37.1321 36.6377 33.7052 33.8758 30.9557C31.6345 28.7244 29.1555 27.3701 26.0452 26.6771C25.046 26.4544 24.6259 26.4391 20.0052 26.4136C18.6418 26.4061 17.3241 26.4098 16.299 26.4216C15.2852 26.4334 14.5343 26.4532 14.3246 26.4813C10.8078 26.9526 7.79529 28.4421 5.27946 30.953C2.43924 33.7876 0.799278 37.4818 0.753328 41.1807C0.74654 41.728 0.747399 42.0633 0.781156 42.2993C0.818624 42.5612 0.897828 42.71 1.02233 42.8843ZM25.4011 30.2986L25.4011 30.2986C27.6789 30.8469 29.509 31.8178 31.075 33.3024C32.9702 35.0992 34.0515 37.1147 34.6203 39.9308L34.6296 39.9769H19.5814H4.52327L4.54131 39.8696L4.29478 39.8281L4.54131 39.8696C5.2045 35.9284 8.00751 32.4456 11.7177 30.9527C12.7476 30.5383 13.3946 30.3222 14.4784 30.2095C15.578 30.0951 17.1235 30.0874 19.9491 30.1045C21.9399 30.1164 23.1648 30.1309 23.9659 30.1602C24.7686 30.1895 25.1299 30.2333 25.4011 30.2986ZM20.8508 4.76165C25.282 5.44597 28.3972 9.63629 27.7526 14.0366C26.8887 19.9326 20.3185 23.0226 15.2616 19.9166C12.3683 18.1395 10.8234 14.6954 11.4514 11.4437C12.3149 6.97275 16.3975 4.07394 20.8508 4.76165Z" fill="white" stroke="white" stroke-width="0.5"/>
</svg>
