<svg width="44" height="44" viewBox="0 0 44 44" fill="none" xmlns="http://www.w3.org/2000/svg">
<path d="M16.8007 0.0517197C12.5038 0.498596 8.86865 2.21735 5.9124 5.18219C3.23975 7.87203 1.521 11.3095 0.988184 15.0478C0.824902 16.208 0.824902 18.683 0.988184 19.8431C1.521 23.5814 3.23975 27.0189 5.921 29.7173C8.57647 32.39 11.7733 34.0314 15.5976 34.6845C16.6804 34.8736 19.4562 34.8994 20.5819 34.7275C23.6757 34.272 26.4601 33.1119 28.8062 31.3158C29.0726 31.1095 29.3218 30.9377 29.3647 30.9377C29.4077 30.9377 32.1577 33.7736 35.4835 37.2283C38.8007 40.6916 41.6624 43.6392 41.8343 43.7681C42.0921 43.9658 42.2124 44.0088 42.453 43.9658C42.8655 43.9056 43.1405 43.5705 43.1405 43.1322C43.1405 42.8056 43.0804 42.7197 42.1694 41.783C41.6366 41.2244 39.2476 38.7494 36.8671 36.2658C34.4866 33.7822 32.1062 31.3072 31.5648 30.7658L30.5937 29.7689L31.1351 29.1759C33.5155 26.5463 35.028 23.3322 35.5351 19.8431C35.6983 18.6658 35.6983 16.2338 35.5351 15.0478C35.0023 11.3095 33.2835 7.87203 30.6108 5.18219C27.9554 2.50953 24.7155 0.842346 20.9687 0.215C20.178 0.0860939 17.5054 -0.0170288 16.8007 0.0517197ZM20.5819 1.85641C22.6702 2.16578 24.6468 2.87906 26.3827 3.9361C29.9835 6.14469 32.4757 9.49625 33.5413 13.5783C33.8765 14.8502 33.9882 15.8127 33.9882 17.4455C33.9882 19.0783 33.8765 20.0408 33.5413 21.3127C32.4757 25.3861 29.9749 28.7548 26.3827 30.9548C24.664 32.0033 22.7647 32.6908 20.5819 33.0431C19.4304 33.2322 17.0929 33.2322 15.9413 33.0431C13.1226 32.5877 10.9569 31.6595 8.67959 29.9408C5.47412 27.5259 3.24834 23.7447 2.64678 19.7228C2.50068 18.7259 2.50068 16.165 2.64678 15.1681C3.33428 10.5361 6.07568 6.42828 10.1405 3.9361C13.2085 2.06266 16.9382 1.315 20.5819 1.85641Z" fill="white"/>
</svg>
