<svg width="19" height="10" viewBox="0 0 19 10" fill="none" xmlns="http://www.w3.org/2000/svg">
<path d="M18.2802 9.80396C18.6335 9.65669 18.8339 9.27075 18.7548 8.87466C18.7232 8.702 18.2275 8.20942 14.3093 4.4313C10.3859 0.658251 9.87433 0.180908 9.69503 0.150439C9.19933 0.0590328 9.48937 -0.184717 4.69054 4.4313C-0.103019 9.04732 0.150107 8.7731 0.245028 9.25044C0.292491 9.49927 0.608897 9.80396 0.867295 9.84966C1.363 9.94107 1.10987 10.1493 5.48156 5.94966L9.49992 2.08013L13.4972 5.92427C15.7331 8.07739 17.5525 9.7938 17.6368 9.82427C17.8372 9.89536 18.0851 9.8852 18.2802 9.80396Z" fill="white"/>
</svg>
