<svg width="26" height="24" viewBox="0 0 26 24" fill="none" xmlns="http://www.w3.org/2000/svg">
<path d="M1.77689 0.873989C1.32494 1.02125 1.06088 1.17868 0.730799 1.50875C0.385487 1.85407 0.146815 2.27555 0.0503303 2.71227C-0.0918572 3.34196 -0.0410759 3.60094 1.06088 7.89196C1.61947 10.0857 2.08158 11.9341 2.08158 12.0002C2.08158 12.0662 1.61947 13.9146 1.06088 16.1084C-0.0410759 20.3994 -0.0918572 20.6584 0.0503303 21.2881C0.192518 21.933 0.735877 22.649 1.29447 22.9334C1.84291 23.2076 2.52846 23.299 3.09721 23.167C3.36127 23.106 24.2476 14.458 24.7046 14.2193C25.5222 13.7927 25.9996 12.9752 25.9996 12.0002C25.9996 11.0252 25.5222 10.2076 24.7046 9.78102C24.2476 9.54235 3.36127 0.8943 3.09721 0.833364C2.74174 0.752113 2.09174 0.772427 1.77689 0.873989ZM13.3296 6.7443C19.1136 9.14625 23.9277 11.1623 24.0292 11.2283C24.5472 11.5634 24.5472 12.4369 24.0292 12.772C23.9277 12.8381 19.1136 14.8591 13.3296 17.256C3.34603 21.3998 2.80267 21.6232 2.50814 21.6232C2.25932 21.6232 2.16283 21.5978 1.99017 21.481C1.73627 21.3134 1.57377 21.0189 1.57377 20.7244C1.57377 20.6025 2.01557 18.7693 2.55892 16.6466L3.539 12.7873L7.47963 12.7619C11.339 12.7365 11.4203 12.7365 11.5574 12.6349C11.9788 12.3201 11.9788 11.6802 11.5574 11.3654C11.4203 11.2638 11.339 11.2638 7.47963 11.2384L3.539 11.2131L2.55892 7.35368C2.01557 5.23102 1.57377 3.39782 1.57377 3.27594C1.57377 2.90016 1.81244 2.565 2.18822 2.4025C2.52338 2.26032 2.43197 2.22477 13.3296 6.7443Z" fill="#ACACAC"/>
</svg>
