<svg width="26" height="26" viewBox="0 0 26 26" fill="none" xmlns="http://www.w3.org/2000/svg">
<path d="M11.7049 0.0357437C8.29746 0.401367 5.20996 2.03145 3.03652 4.62129C1.50801 6.43926 0.558398 8.50098 0.136914 10.9182C0.0404297 11.4717 0.0302734 11.7408 0.0302734 13.0002C0.0302734 14.2596 0.0404297 14.5287 0.136914 15.0822C0.614258 17.8244 1.76191 20.0943 3.65605 22.0596C5.60098 24.0807 8.05371 25.3604 10.9178 25.8631C11.4713 25.9596 11.7404 25.9697 12.9998 25.9697C14.5893 25.9697 15.0666 25.9189 16.3158 25.599C20.7947 24.4412 24.4408 20.7951 25.5986 16.3162C25.9186 15.067 25.9693 14.5896 25.9693 13.0002C25.9693 11.4107 25.9186 10.9334 25.5986 9.68418C24.4408 5.21035 20.7947 1.55918 16.3158 0.401367C15.1631 0.106836 14.6197 0.0408211 13.2029 0.0255871C12.492 0.0154305 11.8166 0.0205078 11.7049 0.0357437ZM14.9041 1.31543C17.4076 1.74199 19.5658 2.85918 21.3533 4.64668C22.8818 6.1752 23.9178 7.96777 24.4459 10.0041C24.7455 11.167 24.8064 11.6596 24.8064 13.0002C24.8064 14.3408 24.7455 14.8334 24.4459 15.9963C23.9178 18.0326 22.8818 19.8252 21.3533 21.3537C19.5353 23.1717 17.3314 24.2939 14.7518 24.7154C13.9646 24.8424 12.035 24.8424 11.2479 24.7154C8.66816 24.2939 6.46426 23.1717 4.64629 21.3537C2.82832 19.5357 1.70605 17.3318 1.28457 14.7521C1.15762 13.965 1.15762 12.0354 1.28457 11.2482C1.70605 8.66856 2.82832 6.46465 4.64629 4.64668C6.63691 2.65606 8.95762 1.55918 11.9334 1.19863C12.0299 1.18848 12.6037 1.1834 13.2029 1.19356C14.0154 1.20371 14.4521 1.23418 14.9041 1.31543Z" fill="#ACACAC"/>
<path d="M7.73381 9.11541C6.50998 9.44548 5.54006 10.7404 5.6467 11.8931C5.68224 12.2435 5.88537 12.4416 6.21037 12.4416C6.58615 12.4416 6.76388 12.2334 6.82482 11.7205C6.97717 10.4763 8.29748 9.82634 9.35373 10.4763C9.79045 10.7404 10.024 11.1213 10.1307 11.7459C10.1916 12.0963 10.2272 12.1826 10.3592 12.2994C10.5776 12.5025 10.9026 12.4974 11.1311 12.2943C11.2936 12.147 11.2986 12.1369 11.2936 11.7205C11.2885 10.5322 10.4049 9.42517 9.21662 9.11541C8.84592 9.01892 8.08928 9.01892 7.73381 9.11541Z" fill="#ACACAC"/>
<path d="M16.7629 9.12049C15.5898 9.43533 14.7113 10.5424 14.7062 11.7205C14.7011 12.1369 14.7062 12.147 14.8687 12.2943C15.0972 12.4974 15.4222 12.5025 15.6406 12.2994C15.7726 12.1826 15.8082 12.0963 15.8691 11.7459C15.9758 11.1213 16.2093 10.7404 16.6461 10.4763C17.7023 9.82635 19.0226 10.4763 19.175 11.7205C19.2359 12.2334 19.4136 12.4416 19.7894 12.4416C20.1144 12.4416 20.3176 12.2435 20.3531 11.8931C20.4648 10.7303 19.4847 9.43533 18.2457 9.11541C17.8801 9.01892 17.1234 9.024 16.7629 9.12049Z" fill="#ACACAC"/>
<path d="M7.69301 15.8643C7.3934 15.9963 7.26137 16.2807 7.36293 16.5854C7.4391 16.8088 8.26176 17.5857 8.8102 17.9514C9.6684 18.5252 10.811 18.9771 11.8317 19.1498C12.0399 19.1854 12.568 19.2158 12.9997 19.2158C13.4313 19.2158 13.9594 19.1854 14.1676 19.1498C15.7418 18.8807 17.2348 18.1088 18.3215 17.0018C18.7938 16.5143 18.7836 16.0674 18.286 15.8592C18.0168 15.7424 17.8493 15.8186 17.3821 16.2553C16.1075 17.4588 14.6805 18.0377 12.9997 18.0377C11.3289 18.0377 9.86137 17.4436 8.63246 16.2705C8.13988 15.7982 7.99262 15.7322 7.69301 15.8643Z" fill="#ACACAC"/>
</svg>
