<svg width="55" height="55" viewBox="0 0 55 55" fill="none" xmlns="http://www.w3.org/2000/svg">
<g clip-path="url(#clip0_219_260)">
<path fill-rule="evenodd" clip-rule="evenodd" d="M25.0299 0.160678C19.7269 0.68017 14.8257 2.63493 10.5284 5.94427C8.43569 7.55581 5.71802 10.5845 4.14751 13.0551C3.46925 14.1221 2.14893 16.8259 1.67596 18.1162C1.14712 19.5591 0.583467 21.7641 0.306104 23.475C-0.0333496 25.5691 -0.0333496 29.545 0.306104 31.639C0.786064 34.5994 1.54533 36.9925 2.84492 39.642C4.26482 42.5365 5.74122 44.5882 8.10547 46.9526C10.4698 49.3168 12.5216 50.7932 15.4161 52.2131C18.0655 53.5127 20.4587 54.272 23.419 54.7519C25.5131 55.0914 29.489 55.0914 31.5831 54.7519C33.294 54.4746 35.4989 53.9109 36.9418 53.3821C38.2322 52.9091 40.936 51.5888 42.003 50.9105C45.4526 48.7177 48.6617 45.5086 50.8545 42.059C51.5328 40.9919 52.8531 38.2881 53.3261 36.9978C54.1101 34.8587 54.8894 31.2403 54.8924 29.726C54.9162 29.1916 54.9202 28.3469 54.9167 27.5443C54.9104 26.1066 54.8968 24.6639 54.6493 23.2477C54.3575 21.5786 53.8428 19.5261 53.3261 18.1162C52.8531 16.8259 51.5328 14.1221 50.8545 13.0551C48.6617 9.60542 45.4526 6.3963 42.003 4.2035C40.936 3.52524 38.2322 2.20492 36.9418 1.73194C35.4935 1.20117 33.2805 0.636235 31.6368 0.37767C30.0578 0.129311 26.532 0.0135101 25.0299 0.160678ZM43.8898 11.1682C40.0897 7.36804 35.2946 5.04579 30.0565 4.46883C28.8569 4.3367 25.9978 4.33907 24.8155 4.47313C19.7054 5.05288 14.8603 7.42014 11.1122 11.1682C6.65357 15.6268 4.2979 21.2923 4.2979 27.557C4.2979 33.8218 6.65357 39.4872 11.1122 43.9458C15.5709 48.4045 21.2363 50.7601 27.501 50.7601C33.7658 50.7601 39.4312 48.4045 43.8898 43.9458C48.3485 39.4872 50.7042 33.8218 50.7042 27.557C50.7042 21.2923 48.3485 15.6268 43.8898 11.1682Z" fill="white"/>
<path d="M27.9498 13.2558C27.4338 13.4901 27.0136 14.0016 26.8388 14.608C26.7497 14.9175 26.7242 16.9141 26.7478 21.7515C26.7797 28.2909 26.7864 28.4765 27.0023 28.8951C27.1819 29.2432 28.0385 29.9425 31.514 32.579C33.8736 34.3687 36.0197 35.9625 36.2833 36.1205C38.0794 37.1975 40.2024 35.2808 39.2933 33.4029C39.0757 32.9532 38.6437 32.5969 35.0375 29.8917L31.0238 26.8811V20.8948C31.0238 16.7053 30.987 14.799 30.9015 14.5434C30.5969 13.6336 29.8093 13.0551 28.8753 13.0551C28.6095 13.0551 28.193 13.1454 27.9498 13.2558Z" fill="white"/>
<path fill-rule="evenodd" clip-rule="evenodd" d="M24.9824 0.080467C18.4208 0.71619 12.4913 3.51926 7.91348 8.14935C3.55312 12.5597 0.95533 17.8967 0.130437 24.1396C-0.043479 25.4559 -0.043479 29.4836 0.130437 30.7998C0.95533 37.0427 3.55312 42.3798 7.91348 46.7901C10.21 49.1129 12.3625 50.6575 15.35 52.1266C19.2866 54.0623 22.9263 54.9035 27.3812 54.9074C29.7868 54.9095 30.8867 54.8106 32.8597 54.4151C39.3366 53.1165 45.0444 49.5725 49.2399 44.2446C50.7532 42.3228 52.375 39.3607 53.259 36.9033C58.9437 21.1036 49.5126 4.08268 33.1283 0.571815C30.888 0.0918537 27.1762 -0.132121 24.9824 0.080467ZM30.1956 4.42805C31.8886 4.64375 33.2968 4.94657 34.6458 5.38485C42.2534 7.85674 48.098 14.1493 49.9783 21.8925C53.6175 36.8797 42.1221 51.1313 26.7904 50.6401C24.1524 50.5556 22.3195 50.2404 19.9864 49.4697C13.6274 47.3695 8.32264 42.3143 5.80263 35.9533C4.65881 33.066 4.16972 30.1692 4.26145 26.8252C4.32634 24.457 4.54225 23.0021 5.13039 20.9707C6.2725 17.0249 8.31029 13.6849 11.3896 10.7113C15.0263 7.19942 19.3829 5.12038 24.5345 4.43804C26.0597 4.23608 28.6524 4.23146 30.1956 4.42805Z" fill="white"/>
</g>
<defs>
<clipPath id="clip0_219_260">
<rect width="55" height="55" fill="white"/>
</clipPath>
</defs>
</svg>
