<svg width="39" height="31" viewBox="0 0 39 31" fill="none" xmlns="http://www.w3.org/2000/svg">
<path d="M5.60054 0.248436L5.39058 0.458397V2.94433V5.42187H4.25679C3.15659 5.42187 3.1062 5.43027 2.91304 5.63183L2.70308 5.8334V9.66309V13.4844H2.23276C1.97241 13.4844 1.60288 13.5264 1.40972 13.5852C0.947803 13.7195 0.250732 14.4166 0.116357 14.8785C-0.026416 15.3656 -0.026416 21.0094 0.116357 21.4965C0.250732 21.9584 0.947803 22.6555 1.40972 22.7898C1.60288 22.8486 1.97241 22.8906 2.23276 22.8906H2.70308V26.7119V30.5416L2.91304 30.7516L3.1146 30.9531L19.7771 30.9363L36.4312 30.9111L37.0695 30.6004C37.8338 30.2225 38.3041 29.7354 38.6736 28.9543L38.9423 28.3916V15.5V2.6084L38.6736 2.0457C38.3041 1.26465 37.8338 0.777538 37.0695 0.399609L36.4312 0.0888653L21.1209 0.0636711L5.8021 0.0468731L5.60054 0.248436ZM36.2464 1.49141C36.9687 1.70976 37.6406 2.63359 37.6406 3.40625C37.6406 4.17891 36.9687 5.10273 36.2464 5.32109C35.9777 5.39668 32.5175 5.42187 21.314 5.42187H6.73433V3.40625V1.39062H21.314C32.5175 1.39062 35.9777 1.41582 36.2464 1.49141ZM37.5482 12.0398C37.4306 12.4682 36.9183 13.0729 36.49 13.2828C36.1961 13.434 35.8517 13.4424 31.4677 13.4844L26.7646 13.5264L26.2019 13.7951C25.4209 14.1646 24.9337 14.635 24.5558 15.3992L24.2451 16.0375V18.1791V20.3291L24.5138 20.8918C24.8834 21.6729 25.3537 22.16 26.1179 22.5379L26.7562 22.8486H31.5937H36.4312L37.0359 22.5463L37.6406 22.2523V25.0574C37.6406 27.0227 37.607 27.9717 37.5398 28.2152C37.4054 28.6771 36.7084 29.3742 36.2464 29.5086C35.9777 29.5842 32.232 29.6094 19.9703 29.6094H4.04683V26.25V22.899L8.14527 22.8738L12.2437 22.8486L12.882 22.5379C13.6462 22.16 14.1166 21.6729 14.4861 20.8918L14.7548 20.3291V18.1875V16.0459L14.4861 15.4832C14.1166 14.7021 13.6462 14.215 12.882 13.8371L12.2437 13.5264L8.14527 13.5012L4.04683 13.476V10.125V6.76562L20.239 6.74883L36.4228 6.72363L37.0107 6.42969L37.5986 6.13574L37.6238 8.90722C37.6406 10.8305 37.6154 11.7879 37.5482 12.0398ZM37.5398 20.1191C37.4054 20.6062 36.7336 21.3033 36.2464 21.4461C35.9945 21.5217 34.7263 21.5469 31.5937 21.5469C28.4611 21.5469 27.1929 21.5217 26.941 21.4461C26.4791 21.3117 25.782 20.6146 25.6476 20.1527C25.5132 19.6908 25.5132 16.6926 25.6476 16.2391C25.7736 15.8275 26.2859 15.2312 26.6974 15.0297C26.9914 14.8785 27.3357 14.8701 31.7197 14.8281L36.4312 14.7861L37.0107 14.4922L37.5986 14.1982L37.6238 16.9697C37.6406 18.9686 37.6154 19.8504 37.5398 20.1191ZM12.0589 14.9289C12.5209 15.0633 13.2179 15.7604 13.3523 16.2223C13.4867 16.6926 13.4867 19.6824 13.3523 20.1527C13.2179 20.6146 12.5209 21.3117 12.0589 21.4461C11.807 21.5217 10.396 21.5469 6.74273 21.5469H1.77085L1.56929 21.3369L1.35933 21.1354V18.1875V15.2396L1.56929 15.0381L1.77085 14.8281H6.74273C10.396 14.8281 11.807 14.8533 12.0589 14.9289Z" fill="white"/>
<path d="M8.75 3.40625V4.07812H22.1875H35.625V3.40625V2.73438H22.1875H8.75V3.40625Z" fill="white"/>
<path d="M9.42189 16.2808C9.01037 16.4152 8.3049 17.1375 8.17892 17.5658C7.94377 18.3553 8.11174 18.9851 8.70803 19.573C9.56467 20.4381 10.7488 20.4213 11.5467 19.531C12.3278 18.666 12.3026 17.6162 11.4795 16.8015C10.8916 16.2053 10.2029 16.0373 9.42189 16.2808ZM10.5557 17.7254C10.9756 18.1369 10.6817 18.8592 10.0938 18.8592C9.9342 18.8592 9.75783 18.7836 9.63186 18.6492C9.49748 18.5232 9.42189 18.3469 9.42189 18.1873C9.42189 18.0277 9.49748 17.8514 9.63186 17.7254C9.75783 17.591 9.9342 17.5154 10.0938 17.5154C10.2533 17.5154 10.4297 17.591 10.5557 17.7254Z" fill="white"/>
</svg>
